<svg viewBox="-960 -487.5 1920 975" width="1920" height="975" style="background-color: rgb(255, 255, 255);" xmlns="http://www.w3.org/2000/svg"><path d="M-209.08304682499204,5.792004774110174L-211.49920074011274,5.35050559461717M-211.49920074011274,-137.83807021458492L-211.49920074011274,5.35050559461717M-211.49920074011274,5.35050559461717L-286.94393566268093,46.75851010520328M-209.08304682499204,-137.39657103509188L-209.08304682499204,5.792004774110174M-209.08304682499204,5.792004774110174L-284.5277817475602,47.20000928469629" style="fill:none;stroke:rgb(0,0,0);stroke-width:1;stroke-linecap:round"></path><path d="M-209.08304682499207,5.792004774110182L-211.49920074011277,5.350505594617171L-211.49920074011277,-137.83807021458492zM-209.08304682499207,-137.39657103509188L-209.08304682499207,5.792004774110182L-211.49920074011277,-137.83807021458492z" style="fill:rgb(170,170,170); fill-opacity: 0.4"></path><path d="M-101.03095354173597,18.476356159006265L-168.02096468840526,6.235399665965854M-168.02096468840526,-113.97718269238618L-168.02096468840526,6.235399665965854M-168.02096468840526,6.235399665965854L-231.35986137851685,40.999088908581726" style="fill:none;stroke:rgb(0,0,0);stroke-width:1;stroke-linecap:round"></path><path d="M-286.94393566268093,46.758510105203285L-211.49920074011277,5.350505594617171L-209.08304682499207,5.792004774110182z" style="fill:rgb(170,170,170); fill-opacity: 0.4"></path><path d="M-209.08304682499204,-137.39657103509188L-211.49920074011274,-137.83807021458492M-211.49920074011274,-137.83807021458492L-286.94393566268093,-96.43006570399878M-209.08304682499204,-137.39657103509188L-284.5277817475602,-95.98856652450577" style="fill:none;stroke:rgb(0,0,0);stroke-width:1;stroke-linecap:round"></path><path d="M-284.5277817475602,47.20000928469629L-209.08304682499207,5.792004774110182L-209.08304682499207,-137.39657103509188zM-101.03095354173597,18.47635615900627L-168.02096468840526,6.235399665965855L-168.02096468840526,-113.97718269238617zM-211.49920074011277,-137.83807021458492L-211.49920074011277,5.350505594617171L-286.94393566268093,-96.43006570399878z" style="fill:rgb(170,170,170); fill-opacity: 0.4"></path><path d="M-101.03095354173597,-101.73622619934575L-101.03095354173597,18.476356159006265M-101.03095354173597,18.476356159006265L-164.36985023184755,53.240045401622154M-101.03095354173597,-101.73622619934575L-168.02096468840526,-113.97718269238618M-168.02096468840526,-113.97718269238618L-231.35986137851685,-79.2134934497703" style="fill:none;stroke:rgb(0,0,0);stroke-width:1;stroke-linecap:round"></path><path d="M-284.5277817475602,47.20000928469629L-286.94393566268093,46.758510105203285L-209.08304682499207,5.792004774110182z" style="fill:rgb(170,170,170); fill-opacity: 0.4"></path><path d="M-123.70354478129809,8.11278653446985L-190.69355592796737,-4.128169958570565M-190.69355592796737,-20.003773655344656L-190.69355592796737,-4.128169958570565M-190.69355592796737,-4.128169958570565L-199.05826453596998,0.4628182942929193" style="fill:none;stroke:rgb(0,0,0);stroke-width:1;stroke-linecap:round"></path><path d="M-231.35986137851688,40.99908890858173L-168.02096468840526,6.235399665965855L-101.03095354173597,18.47635615900627zM-284.5277817475602,-95.98856652450576L-209.08304682499207,-137.39657103509188L-211.49920074011277,-137.83807021458492z" style="fill:rgb(170,170,170); fill-opacity: 0.4"></path><path d="M-123.70354478129809,-7.762817162304241L-190.69355592796737,-20.003773655344656M-190.69355592796737,-20.003773655344656L-199.05826453596998,-15.412785402481173" style="fill:none;stroke:rgb(0,0,0);stroke-width:1;stroke-linecap:round"></path><path d="M-101.03095354173597,-101.73622619934575L-101.03095354173597,18.47635615900627L-168.02096468840526,-113.97718269238617z" style="fill:rgb(170,170,170); fill-opacity: 0.4"></path><path d="M-190.69355592796737,-20.003773655344656L-190.69355592796737,-4.1281699585705605L-199.05826453596998,-15.412785402481173zM-190.69355592796737,-4.1281699585705605L-199.05826453596998,0.4628182942929236L-199.05826453596998,-15.412785402481173z" style="fill:rgb(153,221,255); fill-opacity: 0.4"></path><path d="M-211.49920074011277,5.350505594617171L-286.94393566268093,46.758510105203285L-286.94393566268093,-96.43006570399878z" style="fill:rgb(170,170,170); fill-opacity: 0.4"></path><path d="M-199.05826453596998,-15.412785402481173L-199.05826453596998,0.4628182942929193M-199.05826453596998,0.4628182942929193L-132.06825338930068,12.703774787333334" style="fill:none;stroke:rgb(0,0,0);stroke-width:1;stroke-linecap:round"></path><path d="M-123.70354478129809,8.112786534469853L-190.69355592796737,-4.1281699585705605L-190.69355592796737,-20.003773655344656z" style="fill:rgb(153,221,255); fill-opacity: 0.4"></path><path d="M-168.02096468840526,-113.97718269238617L-168.02096468840526,6.235399665965855L-231.35986137851688,-79.2134934497703z" style="fill:rgb(170,170,170); fill-opacity: 0.4"></path><path d="M-199.05826453596998,0.4628182942929236L-190.69355592796737,-4.1281699585705605L-123.70354478129809,8.112786534469853z" style="fill:rgb(153,221,255); fill-opacity: 0.4"></path><path d="M-199.05826453596998,-15.412785402481173L-132.06825338930068,-3.1718289094407575M-260.33262696625286,-41.10109480384189L-262.7487808813736,-41.5425939833349M-262.7487808813736,-60.06413162957135L-262.7487808813736,-41.5425939833349M-262.7487808813736,-41.5425939833349L-272.5076075907099,-36.18644102166084M-261.540697146468,-59.84338115870055L-261.540697146468,-41.3218428816243M-261.540697146468,-41.3218428816243L-271.29952252626975,-35.96569064966817M-261.540697146468,-41.3218428816243L-215.14350958072578,-38.65968258855205M-260.33262696625286,-59.622632450078335L-260.33262696625286,-41.10109480384189M-260.33262696625286,-41.10109480384189L-270.0914536755892,-35.744941842167826" style="fill:none;stroke:rgb(0,0,0);stroke-width:1;stroke-linecap:round"></path><path d="M-260.3326269662528,-41.10109480384189L-262.74878088137353,-41.5425939833349L-262.74878088137353,-60.06413162957135zM-199.05826453596998,-15.412785402481173L-132.06825338930068,-3.171828909440758L-190.69355592796737,-20.003773655344656zM-123.70354478129809,-7.762817162304243L-123.70354478129809,8.112786534469853L-190.69355592796737,-20.003773655344656zM-260.3326269662528,-59.622632450078335L-260.3326269662528,-41.10109480384189L-262.74878088137353,-60.06413162957135zM-272.5076075907099,-36.18644102166084L-262.74878088137353,-41.5425939833349L-260.3326269662528,-41.10109480384189zM-199.05826453596998,-15.412785402481173L-199.05826453596998,0.4628182942929236L-132.06825338930068,-3.171828909440758z" style="fill:rgb(153,221,255); fill-opacity: 0.4"></path><path d="M-260.33262696625286,-59.622632450078335L-262.7487808813736,-60.06413162957135M-262.7487808813736,-60.06413162957135L-272.5076075907099,-54.70797866789728" style="fill:none;stroke:rgb(0,0,0);stroke-width:1;stroke-linecap:round"></path><path d="M-284.5277817475602,-95.98856652450576L-284.5277817475602,47.20000928469629L-209.08304682499207,-137.39657103509188z" style="fill:rgb(170,170,170); fill-opacity: 0.4"></path><path d="M-261.540697146468,-59.84338115870055L-271.29952252626975,-54.487228926744415M-261.540697146468,-59.84338115870055L-215.14350958072578,-38.65968258855205M-260.33262696625286,-59.622632450078335L-270.0914536755892,-54.26647948840427" style="fill:none;stroke:rgb(0,0,0);stroke-width:1;stroke-linecap:round"></path><path d="M-261.54070392381317,-59.843382039824846L-261.54070392381317,-41.3218443935884L-271.2995306331495,-35.96569143191434z" style="fill:rgb(255,187,187); fill-opacity: 0.4"></path><path d="M-101.03095354173597,-101.73622619934575L-164.36985023184755,-66.9725369567299" style="fill:none;stroke:rgb(0,0,0);stroke-width:1;stroke-linecap:round"></path><path d="M-270.0914536755892,-35.744941842167826L-260.3326269662528,-41.10109480384189L-260.3326269662528,-59.622632450078335zM-262.74878088137353,-60.06413162957135L-262.74878088137353,-41.5425939833349L-272.5076075907099,-54.70797866789728zM-132.06825338930068,12.703774787333337L-199.05826453596998,0.4628182942929236L-123.70354478129809,8.112786534469853z" style="fill:rgb(153,221,255); fill-opacity: 0.4"></path><path d="M24.143067743607048,33.3170367041602L-59.59444849395347,18.01584066681325M-59.59444849395347,-76.05632452586872L-59.59444849395347,18.01584066681325M-59.59444849395347,18.01584066681325L-109.16020139319998,45.220110411137654" style="fill:none;stroke:rgb(0,0,0);stroke-width:1;stroke-linecap:round"></path><path d="M-132.06825338930068,-3.171828909440758L-123.70354478129809,-7.762817162304243L-190.69355592796737,-20.003773655344656zM-270.0914536755892,-35.744941842167826L-272.5076075907099,-36.18644102166084L-260.3326269662528,-41.10109480384189zM-270.0914536755892,-54.26647948840427L-260.3326269662528,-59.622632450078335L-262.74878088137353,-60.06413162957135zM-262.74878088137353,-41.5425939833349L-272.5076075907099,-36.18644102166084L-272.5076075907099,-54.70797866789728z" style="fill:rgb(153,221,255); fill-opacity: 0.4"></path><path d="M-123.70354667199963,-7.762818486194885L-123.70354667199963,8.112785210579212M-123.70354667199963,8.112785210579212L-132.06825528000223,12.703773463442696M-123.70354667199963,8.112785210579212L-80.6097441080509,5.490467623396546M-123.70354478129809,-7.762817162304241L-123.70354478129809,8.11278653446985M-123.70354478129809,8.11278653446985L-132.06825338930068,12.703774787333334" style="fill:none;stroke:rgb(0,0,0);stroke-width:1;stroke-linecap:round"></path><path d="M-261.54070392381317,-41.3218443935884L-261.54070392381317,-59.843382039824846L-215.14351671448432,-38.65968350535576z" style="fill:rgb(255,187,187); fill-opacity: 0.4"></path><path d="M-168.02096468840526,6.235399665965855L-231.35986137851688,40.99908890858173L-231.35986137851688,-79.2134934497703z" style="fill:rgb(170,170,170); fill-opacity: 0.4"></path><path d="M-286.94393566268093,-96.43006570399878L-286.94393566268093,46.75851010520328M-286.94393566268093,46.75851010520328L-284.5277817475602,47.20000928469629" style="fill:none;stroke:rgb(0,0,0);stroke-width:1;stroke-linecap:round"></path><path d="M-261.54070392381317,-59.843382039824846L-271.2995306331495,-35.96569143191434L-271.2995306331495,-54.48722907815078z" style="fill:rgb(255,187,187); fill-opacity: 0.4"></path><path d="M-272.5076075907099,-54.70797866789728L-272.5076075907099,-36.18644102166084M-272.5076075907099,-36.18644102166084L-270.0914536755892,-35.744941842167826M-284.5277817475602,-95.98856652450577L-284.5277817475602,47.20000928469629" style="fill:none;stroke:rgb(0,0,0);stroke-width:1;stroke-linecap:round"></path><path d="M-270.0914536755892,-54.26647948840427L-270.0914536755892,-35.744941842167826L-260.3326269662528,-59.622632450078335z" style="fill:rgb(153,221,255); fill-opacity: 0.4"></path><path d="M-164.36985023184758,53.240045401622154L-101.03095354173597,18.47635615900627L-101.03095354173597,-101.73622619934575z" style="fill:rgb(170,170,170); fill-opacity: 0.4"></path><path d="M-199.05826453596998,0.4628182942929236L-132.06825338930068,12.703774787333337L-132.06825338930068,-3.171828909440758z" style="fill:rgb(153,221,255); fill-opacity: 0.4"></path><path d="M-271.2995306331495,-35.96569143191434L-261.54070392381317,-41.3218443935884L-215.14351671448432,-38.65968350535576z" style="fill:rgb(255,187,187); fill-opacity: 0.4"></path><path d="M-271.29952252626975,-35.96569064966817L-271.29952252626975,-54.487228926744415M-271.29952252626975,-35.96569064966817L-215.14350958072578,-38.65968258855205" style="fill:none;stroke:rgb(0,0,0);stroke-width:1;stroke-linecap:round"></path><path d="M-272.5076075907099,-54.70797866789728L-270.0914536755892,-54.26647948840427L-262.74878088137353,-60.06413162957135z" style="fill:rgb(153,221,255); fill-opacity: 0.4"></path><path d="M-270.0914536755892,-54.26647948840427L-270.0914536755892,-35.744941842167826M-123.70354667199963,-7.762818486194885L-132.06825528000223,-3.171830233331399M-123.70354667199963,-7.762818486194885L-80.6097441080509,5.490467623396546M-123.70354478129809,-7.762817162304241L-132.06825338930068,-3.1718289094407575" style="fill:none;stroke:rgb(0,0,0);stroke-width:1;stroke-linecap:round"></path><path d="M-272.5076075907099,-36.18644102166084L-270.0914536755892,-35.744941842167826L-270.0914536755892,-54.26647948840427z" style="fill:rgb(153,221,255); fill-opacity: 0.4"></path><path d="M-123.70354487333684,-7.762817179122306L-123.70354487333684,8.11278651765179L-132.06825348133944,12.703774770515274z" style="fill:rgb(255,187,187); fill-opacity: 0.4"></path><path d="M-132.06825338930068,12.703774787333337L-123.70354478129809,8.112786534469853L-123.70354478129809,-7.762817162304243zM-272.5076075907099,-54.70797866789728L-272.5076075907099,-36.18644102166084L-270.0914536755892,-54.26647948840427z" style="fill:rgb(153,221,255); fill-opacity: 0.4"></path><path d="M-261.54070392381317,-59.843382039824846L-271.2995306331495,-54.48722907815078L-215.14351671448432,-38.65968350535576z" style="fill:rgb(255,187,187); fill-opacity: 0.4"></path><path d="M-286.94393566268093,-96.43006570399878L-284.5277817475602,-95.98856652450576L-211.49920074011277,-137.83807021458492z" style="fill:rgb(170,170,170); fill-opacity: 0.4"></path><path d="M-272.5076075907099,-54.70797866789728L-270.0914536755892,-54.26647948840427M-271.29952252626975,-54.487228926744415L-215.14350958072578,-38.65968258855205" style="fill:none;stroke:rgb(0,0,0);stroke-width:1;stroke-linecap:round"></path><path d="M-271.2995306331495,-54.48722907815078L-271.2995306331495,-35.96569143191434L-215.14351671448432,-38.65968350535576z" style="fill:rgb(255,187,187); fill-opacity: 0.4"></path><path d="M-164.36985023184758,53.240045401622154L-231.35986137851688,40.99908890858173L-101.03095354173597,18.47635615900627z" style="fill:rgb(170,170,170); fill-opacity: 0.4"></path><path d="M-123.70354487333684,-7.762817179122306L-132.06825348133944,12.703774770515274L-132.06825348133944,-3.1718289262588213z" style="fill:rgb(255,187,187); fill-opacity: 0.4"></path><path d="M-132.06825338930068,-3.171828909440758L-132.06825338930068,12.703774787333337L-123.70354478129809,-7.762817162304243z" style="fill:rgb(153,221,255); fill-opacity: 0.4"></path><path d="M-132.06825528000223,12.703773463442696L-132.06825528000223,-3.171830233331399M-132.06825528000223,12.703773463442696L-80.6097441080509,5.490467623396546M-132.06825338930068,-3.1718289094407575L-132.06825338930068,12.703774787333334" style="fill:none;stroke:rgb(0,0,0);stroke-width:1;stroke-linecap:round"></path><path d="M-123.70354487333684,8.11278651765179L-123.70354487333684,-7.762817179122306L-80.60974221348319,5.49046675433769z" style="fill:rgb(255,187,187); fill-opacity: 0.4"></path><path d="M-164.36985023184758,-66.97253695672988L-101.03095354173597,-101.73622619934575L-168.02096468840526,-113.97718269238617z" style="fill:rgb(170,170,170); fill-opacity: 0.4"></path><path d="M-132.06825348133944,12.703774770515274L-123.70354487333684,8.11278651765179L-80.60974221348319,5.49046675433769z" style="fill:rgb(255,187,187); fill-opacity: 0.4"></path><path d="M-286.94393566268093,46.758510105203285L-284.5277817475602,47.20000928469629L-284.5277817475602,-95.98856652450576z" style="fill:rgb(170,170,170); fill-opacity: 0.4"></path><path d="M-132.06825528000223,-3.171830233331399L-80.6097441080509,5.490467623396546" style="fill:none;stroke:rgb(0,0,0);stroke-width:1;stroke-linecap:round"></path><path d="M-123.70354487333684,-7.762817179122306L-132.06825348133944,-3.1718289262588213L-80.60974221348319,5.49046675433769z" style="fill:rgb(255,187,187); fill-opacity: 0.4"></path><path d="M-231.35986137851685,-79.2134934497703L-231.35986137851685,40.999088908581726M-231.35986137851685,40.999088908581726L-164.36985023184755,53.240045401622154" style="fill:none;stroke:rgb(0,0,0);stroke-width:1;stroke-linecap:round"></path><path d="M24.143067743607055,33.317036704160195L-59.59444849395348,18.01584066681325L-59.59444849395348,-76.0563245258687z" style="fill:rgb(170,170,170); fill-opacity: 0.4"></path><path d="M-132.06825348133944,-3.1718289262588213L-132.06825348133944,12.703774770515274L-80.60974221348319,5.49046675433769z" style="fill:rgb(255,187,187); fill-opacity: 0.4"></path><path d="M24.143067743607048,-60.755128488521756L-59.59444849395347,-76.05632452586872M-59.59444849395347,-76.05632452586872L-109.16020139319998,-48.85205478154431" style="fill:none;stroke:rgb(0,0,0);stroke-width:1;stroke-linecap:round"></path><path d="M-286.94393566268093,-96.43006570399878L-286.94393566268093,46.758510105203285L-284.5277817475602,-95.98856652450576zM-109.1602013932,45.220110411137654L-59.59444849395348,18.01584066681325L24.143067743607055,33.317036704160195zM-231.35986137851688,-79.2134934497703L-164.36985023184758,-66.97253695672988L-168.02096468840526,-113.97718269238617z" style="fill:rgb(170,170,170); fill-opacity: 0.4"></path><path d="M24.143067743607048,-60.755128488521756L24.143067743607048,33.3170367041602M24.143067743607048,33.3170367041602L-25.422685155639446,60.52130644848461" style="fill:none;stroke:rgb(0,0,0);stroke-width:1;stroke-linecap:round"></path><path d="M-59.59444849395348,-76.0563245258687L-59.59444849395348,18.01584066681325L-109.1602013932,-48.85205478154431zM24.143067743607055,-60.75512848852176L24.143067743607055,33.317036704160195L-59.59444849395348,-76.0563245258687z" style="fill:rgb(170,170,170); fill-opacity: 0.4"></path><path d="M-286.94393566268093,-96.43006570399878L-284.5277817475602,-95.98856652450577" style="fill:none;stroke:rgb(0,0,0);stroke-width:1;stroke-linecap:round"></path><path d="M-164.36985023184758,-66.97253695672988L-164.36985023184758,53.240045401622154L-101.03095354173597,-101.73622619934575z" style="fill:rgb(170,170,170); fill-opacity: 0.4"></path><path d="M-164.36985023184755,-66.9725369567299L-164.36985023184755,53.240045401622154" style="fill:none;stroke:rgb(0,0,0);stroke-width:1;stroke-linecap:round"></path><path d="M-231.35986137851688,40.99908890858173L-164.36985023184758,53.240045401622154L-164.36985023184758,-66.97253695672988zM-231.35986137851688,-79.2134934497703L-231.35986137851688,40.99908890858173L-164.36985023184758,-66.97253695672988zM-59.59444849395348,18.01584066681325L-109.1602013932,45.220110411137654L-109.1602013932,-48.85205478154431z" style="fill:rgb(170,170,170); fill-opacity: 0.4"></path><path d="M-231.35986137851685,-79.2134934497703L-164.36985023184755,-66.9725369567299M-6.958944941317487,-16.251636201065185L-90.69646117887802,-31.552832238412126M-90.69646117887802,-44.782501985723876L-90.69646117887802,-31.552832238412126M-90.69646117887802,-31.552832238412126L-97.66705168554685,-27.727008694359228M24.143067743607048,-60.755128488521756L-25.422685155639446,-33.55085874419736M-6.958944941317487,-29.481305948376924L-90.69646117887802,-44.782501985723876M-90.69646117887802,-44.782501985723876L-97.66705168554685,-40.956678441670974" style="fill:none;stroke:rgb(0,0,0);stroke-width:1;stroke-linecap:round"></path><path d="M-90.69646117887802,-44.782501985723876L-90.69646117887802,-31.552832238412126L-97.66705168554685,-40.956678441670974z" style="fill:rgb(153,221,255); fill-opacity: 0.4"></path><path d="M-109.16020139319998,-48.85205478154431L-109.16020139319998,45.220110411137654M-109.16020139319998,45.220110411137654L-25.422685155639446,60.52130644848461" style="fill:none;stroke:rgb(0,0,0);stroke-width:1;stroke-linecap:round"></path><path d="M-90.69646117887802,-31.552832238412126L-97.66705168554685,-27.727008694359228L-97.66705168554685,-40.956678441670974z" style="fill:rgb(153,221,255); fill-opacity: 0.4"></path><path d="M-25.422685155639442,60.5213064484846L24.143067743607055,33.317036704160195L24.143067743607055,-60.75512848852176z" style="fill:rgb(170,170,170); fill-opacity: 0.4"></path><path d="M-97.66705168554685,-40.956678441670974L-97.66705168554685,-27.727008694359228M-97.66705168554685,-27.727008694359228L-13.929535447986321,-12.425812657012278" style="fill:none;stroke:rgb(0,0,0);stroke-width:1;stroke-linecap:round"></path><path d="M-25.422685155639442,60.5213064484846L-109.1602013932,45.220110411137654L24.143067743607055,33.317036704160195zM-25.422685155639442,-33.55085874419736L24.143067743607055,-60.75512848852176L-59.59444849395348,-76.0563245258687z" style="fill:rgb(170,170,170); fill-opacity: 0.4"></path><path d="M-97.66705168554685,-40.956678441670974L-13.929535447986321,-25.655482404324022" style="fill:none;stroke:rgb(0,0,0);stroke-width:1;stroke-linecap:round"></path><path d="M-6.958944941317485,-16.251636201065182L-90.69646117887802,-31.552832238412126L-90.69646117887802,-44.782501985723876z" style="fill:rgb(153,221,255); fill-opacity: 0.4"></path><path d="M164.88302840835257,49.62394468743902L64.39801629679654,31.262510789971248M64.39801629679654,-32.184213458466374L64.39801629679654,31.262510789971248M64.39801629679654,31.262510789971248L30.968524694010227,49.61035892669656" style="fill:none;stroke:rgb(0,0,0);stroke-width:1;stroke-linecap:round"></path><path d="M-97.66705168554685,-27.727008694359228L-90.69646117887802,-31.552832238412126L-6.958944941317485,-16.251636201065182zM-97.66705168554685,-40.956678441670974L-13.929535447986316,-25.655482404324022L-90.69646117887802,-44.782501985723876z" style="fill:rgb(153,221,255); fill-opacity: 0.4"></path><path d="M-109.1602013932,-48.85205478154431L-25.422685155639442,-33.55085874419736L-59.59444849395348,-76.0563245258687z" style="fill:rgb(170,170,170); fill-opacity: 0.4"></path><path d="M-97.66705168554685,-40.956678441670974L-97.66705168554685,-27.727008694359228L-13.929535447986316,-25.655482404324022zM-6.958944941317485,-29.481305948376924L-6.958944941317485,-16.251636201065182L-90.69646117887802,-44.782501985723876zM-13.929535447986318,-12.425812657012276L-97.66705168554685,-27.727008694359228L-6.958944941317485,-16.251636201065182z" style="fill:rgb(153,221,255); fill-opacity: 0.4"></path><path d="M164.88302840835257,-13.822779560998608L64.39801629679654,-32.184213458466374M64.39801629679654,-32.184213458466374L30.968524694010227,-13.836365321741063" style="fill:none;stroke:rgb(0,0,0);stroke-width:1;stroke-linecap:round"></path><path d="M-13.929535447986316,-25.655482404324022L-6.958944941317485,-29.481305948376924L-90.69646117887802,-44.782501985723876z" style="fill:rgb(153,221,255); fill-opacity: 0.4"></path><path d="M-109.16020139319998,-48.85205478154431L-25.422685155639446,-33.55085874419736" style="fill:none;stroke:rgb(0,0,0);stroke-width:1;stroke-linecap:round"></path><path d="M164.8830284083526,49.62394468743902L64.39801629679656,31.262510789971248L64.39801629679656,-32.18421345846638z" style="fill:rgb(170,170,170); fill-opacity: 0.4"></path><path d="M-97.66705168554685,-27.727008694359228L-13.929535447986318,-12.425812657012276L-13.929535447986316,-25.655482404324022z" style="fill:rgb(153,221,255); fill-opacity: 0.4"></path><path d="M-109.1602013932,-48.85205478154431L-109.1602013932,45.220110411137654L-25.422685155639442,-33.55085874419736z" style="fill:rgb(170,170,170); fill-opacity: 0.4"></path><path d="M-6.958946459210882,-29.481305819729407L-6.958946459210882,-16.25163607241766M-6.958946459210882,-16.25163607241766L-13.929536301112398,-12.425812893223721M-6.958946459210882,-16.25163607241766L41.070695629057745,-5.340150882460811M-6.958944941317487,-29.481305948376924L-6.958944941317487,-16.251636201065185M-6.958944941317487,-16.251636201065185L-13.929535447986321,-12.425812657012278" style="fill:none;stroke:rgb(0,0,0);stroke-width:1;stroke-linecap:round"></path><path d="M-25.422685155639442,-33.55085874419736L-25.422685155639442,60.5213064484846L24.143067743607055,-60.75512848852176zM-109.1602013932,45.220110411137654L-25.422685155639442,60.5213064484846L-25.422685155639442,-33.55085874419736zM64.39801629679656,-32.18421345846638L64.39801629679656,31.262510789971248L30.968524694010235,-13.836365321741063z" style="fill:rgb(170,170,170); fill-opacity: 0.4"></path><path d="M-6.958946459210882,-29.481305819729407L-13.929536301112396,-25.655482640535467M-6.958946459210882,-29.481305819729407L41.070695629057745,-5.340150882460811M-6.958944941317487,-29.481305948376924L-13.929535447986321,-25.655482404324022" style="fill:none;stroke:rgb(0,0,0);stroke-width:1;stroke-linecap:round"></path><path d="M-6.9589462084779,-29.481306179922726L-6.9589462084779,-16.25163643261098L-13.929536715146732,-12.425812888558072z" style="fill:rgb(255,187,187); fill-opacity: 0.4"></path><path d="M-13.929535447986318,-12.425812657012276L-6.958944941317485,-16.251636201065182L-6.958944941317485,-29.481305948376924z" style="fill:rgb(153,221,255); fill-opacity: 0.4"></path><path d="M30.968524694010235,49.610358926696556L64.39801629679656,31.262510789971248L164.8830284083526,49.62394468743902z" style="fill:rgb(170,170,170); fill-opacity: 0.4"></path><path d="M-25.422685155639446,-33.55085874419736L-25.422685155639446,60.52130644848461" style="fill:none;stroke:rgb(0,0,0);stroke-width:1;stroke-linecap:round"></path><path d="M-6.9589462084779,-16.25163643261098L-6.9589462084779,-29.481306179922726L41.07069495738433,-5.340151018142664zM-6.9589462084779,-29.481306179922726L-13.929536715146732,-12.425812888558072L-13.92953671514673,-25.65548263586982z" style="fill:rgb(255,187,187); fill-opacity: 0.4"></path><path d="M-13.929535447986316,-25.655482404324022L-13.929535447986318,-12.425812657012276L-6.958944941317485,-29.481305948376924z" style="fill:rgb(153,221,255); fill-opacity: 0.4"></path><path d="M-13.929536301112398,-12.425812893223721L-13.929536301112396,-25.655482640535467M-13.929536301112398,-12.425812893223721L41.070695629057745,-5.340150882460811M-13.929535447986321,-25.655482404324022L-13.929535447986321,-12.425812657012278" style="fill:none;stroke:rgb(0,0,0);stroke-width:1;stroke-linecap:round"></path><path d="M-13.929536715146732,-12.425812888558072L-6.9589462084779,-16.25163643261098L41.07069495738433,-5.340151018142664z" style="fill:rgb(255,187,187); fill-opacity: 0.4"></path><path d="M64.39801629679656,31.262510789971248L30.968524694010235,49.610358926696556L30.968524694010235,-13.836365321741063z" style="fill:rgb(170,170,170); fill-opacity: 0.4"></path><path d="M-6.9589462084779,-29.481306179922726L-13.92953671514673,-25.65548263586982L41.07069495738433,-5.340151018142664z" style="fill:rgb(255,187,187); fill-opacity: 0.4"></path><path d="M-13.929536301112396,-25.655482640535467L41.070695629057745,-5.340150882460811" style="fill:none;stroke:rgb(0,0,0);stroke-width:1;stroke-linecap:round"></path><path d="M-13.92953671514673,-25.65548263586982L-13.929536715146732,-12.425812888558072L41.07069495738433,-5.340151018142664z" style="fill:rgb(255,187,187); fill-opacity: 0.4"></path><path d="M164.8830284083526,-13.822779560998605L164.8830284083526,49.62394468743902L64.39801629679656,-32.18421345846638z" style="fill:rgb(170,170,170); fill-opacity: 0.4"></path><path d="M30.968524694010227,-13.836365321741063L30.968524694010227,49.61035892669656M30.968524694010227,49.61035892669656L131.45353680556627,67.97179282416432M164.88302840835257,-13.822779560998608L164.88302840835257,49.62394468743902M164.88302840835257,49.62394468743902L131.45353680556627,67.97179282416432M140.97230063999925,13.858005466316095L40.4872885284432,-4.50342843115167M40.4872885284432,-15.087164229001067L40.4872885284432,-4.50342843115167M40.4872885284432,-4.50342843115167L34.91081612310814,-1.4427695959093476M140.97230063999925,3.2742696684667005L40.4872885284432,-15.087164229001067M40.4872885284432,-15.087164229001067L34.91081612310814,-12.026505393758743" style="fill:none;stroke:rgb(0,0,0);stroke-width:1;stroke-linecap:round"></path><path d="M40.487288528443216,-15.087164229001068L40.487288528443216,-4.503428431151673L34.91081612310815,-12.026505393758747zM40.487288528443216,-4.503428431151673L34.91081612310815,-1.44276959590935L34.91081612310815,-12.026505393758747z" style="fill:rgb(153,221,255); fill-opacity: 0.4"></path><path d="M34.91081612310814,-12.026505393758743L34.91081612310814,-1.4427695959093476M34.91081612310814,-1.4427695959093476L135.39582823466418,16.91866430155842M34.91081612310814,-12.026505393758743L135.39582823466418,6.334928503709024" style="fill:none;stroke:rgb(0,0,0);stroke-width:1;stroke-linecap:round"></path><path d="M131.4535368055663,67.97179282416434L30.968524694010235,49.610358926696556L164.8830284083526,49.62394468743902z" style="fill:rgb(170,170,170); fill-opacity: 0.4"></path><path d="M140.97230063999925,13.858005466316095L40.487288528443216,-4.503428431151673L40.487288528443216,-15.087164229001068z" style="fill:rgb(153,221,255); fill-opacity: 0.4"></path><path d="M30.968524694010227,-13.836365321741063L131.45353680556627,4.525068575726705" style="fill:none;stroke:rgb(0,0,0);stroke-width:1;stroke-linecap:round"></path><path d="M30.968524694010235,-13.836365321741063L131.4535368055663,4.525068575726707L64.39801629679656,-32.18421345846638zM131.4535368055663,4.525068575726707L164.8830284083526,-13.822779560998605L64.39801629679656,-32.18421345846638z" style="fill:rgb(170,170,170); fill-opacity: 0.4"></path><path d="M164.88302840835257,-13.822779560998608L131.45353680556627,4.525068575726705" style="fill:none;stroke:rgb(0,0,0);stroke-width:1;stroke-linecap:round"></path><path d="M34.91081612310815,-1.44276959590935L40.487288528443216,-4.503428431151673L140.97230063999925,13.858005466316095z" style="fill:rgb(153,221,255); fill-opacity: 0.4"></path><path d="M131.4535368055663,67.97179282416434L164.8830284083526,49.62394468743902L164.8830284083526,-13.822779560998605z" style="fill:rgb(170,170,170); fill-opacity: 0.4"></path><path d="M34.91081612310815,-12.026505393758747L135.39582823466418,6.3349285037090235L40.487288528443216,-15.087164229001068zM34.91081612310815,-12.026505393758747L34.91081612310815,-1.44276959590935L135.39582823466418,6.3349285037090235z" style="fill:rgb(153,221,255); fill-opacity: 0.4"></path><path d="M30.968524694010235,-13.836365321741063L30.968524694010235,49.610358926696556L131.4535368055663,4.525068575726707z" style="fill:rgb(170,170,170); fill-opacity: 0.4"></path><path d="M326.21350296699785,74.17559492640933L208.98098576455055,52.75392148463503M208.98098576455055,5.345148820430778L208.98098576455055,52.75392148463503M208.98098576455055,52.75392148463503L184.00174236861668,66.46383277627707" style="fill:none;stroke:rgb(0,0,0);stroke-width:1;stroke-linecap:round"></path><path d="M140.97230063999925,3.2742696684667014L140.97230063999925,13.858005466316095L40.487288528443216,-15.087164229001068zM135.39582823466418,16.918664301558422L34.91081612310815,-1.44276959590935L140.97230063999925,13.858005466316095z" style="fill:rgb(153,221,255); fill-opacity: 0.4"></path><path d="M30.968524694010235,49.610358926696556L131.4535368055663,67.97179282416434L131.4535368055663,4.525068575726707z" style="fill:rgb(170,170,170); fill-opacity: 0.4"></path><path d="M135.39582823466418,6.3349285037090235L140.97230063999925,3.2742696684667014L40.487288528443216,-15.087164229001068zM34.91081612310815,-1.44276959590935L135.39582823466418,16.918664301558422L135.39582823466418,6.3349285037090235z" style="fill:rgb(153,221,255); fill-opacity: 0.4"></path><path d="M131.4535368055663,4.525068575726707L131.4535368055663,67.97179282416434L164.8830284083526,-13.822779560998605z" style="fill:rgb(170,170,170); fill-opacity: 0.4"></path><path d="M326.21350296699785,26.766822262205082L208.98098576455055,5.345148820430778M208.98098576455055,5.345148820430778L184.00174236861668,19.055060112072823M131.45353680556627,4.525068575726705L131.45353680556627,67.97179282416432M140.97229930418868,3.274268686700959L140.97229930418868,13.858005746229978M140.97229930418868,13.858005746229978L135.39582623408626,16.918664946331265M140.97229930418868,13.858005746229978L189.03094371566743,23.21813146292373M140.97230063999925,3.2742696684667005L140.97230063999925,13.858005466316095M140.97230063999925,13.858005466316095L135.39582823466418,16.91866430155842M140.97229930418868,3.274268686700959L135.39582623408626,6.334927886802249M140.97229930418868,3.274268686700959L189.03094371566743,23.21813146292373M140.97230063999925,3.2742696684667005L135.39582823466418,6.334928503709024" style="fill:none;stroke:rgb(0,0,0);stroke-width:1;stroke-linecap:round"></path><path d="M135.39582823466418,16.918664301558422L140.97230063999925,13.858005466316095L140.97230063999925,3.2742696684667014z" style="fill:rgb(153,221,255); fill-opacity: 0.4"></path><path d="M140.97230280616503,3.2742700642860276L140.97230280616503,13.858005862135423L135.39583040082996,16.918664697377743z" style="fill:rgb(255,187,187); fill-opacity: 0.4"></path><path d="M317.1579915154623,51.44333937370171L199.925474313015,30.021665931927412M199.925474313015,22.08386408354037L199.925474313015,30.021665931927412M199.925474313015,30.021665931927412L195.7431200090137,32.31716005835916" style="fill:none;stroke:rgb(0,0,0);stroke-width:1;stroke-linecap:round"></path><path d="M208.9809857645505,5.345148820430786L208.9809857645505,52.753921484635036L184.00174236861662,19.055060112072827zM326.21350296699785,74.17559492640935L208.9809857645505,52.753921484635036L208.9809857645505,5.345148820430786z" style="fill:rgb(170,170,170); fill-opacity: 0.4"></path><path d="M317.1579915154623,43.505537525314665L199.925474313015,22.08386408354037M199.925474313015,22.08386408354037L195.7431200090137,24.37935820997211" style="fill:none;stroke:rgb(0,0,0);stroke-width:1;stroke-linecap:round"></path><path d="M135.39582823466418,6.3349285037090235L135.39582823466418,16.918664301558422L140.97230063999925,3.2742696684667014z" style="fill:rgb(153,221,255); fill-opacity: 0.4"></path><path d="M140.97230280616503,3.2742700642860276L135.39583040082996,16.918664697377743L135.39583040082996,6.33492889952835z" style="fill:rgb(255,187,187); fill-opacity: 0.4"></path><path d="M199.92547431301497,22.083864083540373L199.92547431301497,30.02166593192742L195.74312000901364,24.379358209972114z" style="fill:rgb(153,221,255); fill-opacity: 0.4"></path><path d="M135.39582623408626,16.918664946331265L135.39582623408626,6.334927886802249M135.39582623408626,16.918664946331265L189.03094371566743,23.21813146292373M135.39582823466418,6.334928503709024L135.39582823466418,16.91866430155842" style="fill:none;stroke:rgb(0,0,0);stroke-width:1;stroke-linecap:round"></path><path d="M199.92547431301497,30.02166593192742L195.74312000901364,32.317160058359164L195.74312000901364,24.379358209972114z" style="fill:rgb(153,221,255); fill-opacity: 0.4"></path><path d="M140.97230280616503,13.858005862135423L140.97230280616503,3.2742700642860276L189.0309382391402,23.2181303534254z" style="fill:rgb(255,187,187); fill-opacity: 0.4"></path><path d="M195.7431200090137,24.37935820997211L195.7431200090137,32.31716005835916M195.7431200090137,32.31716005835916L312.975637211461,53.73883350013345" style="fill:none;stroke:rgb(0,0,0);stroke-width:1;stroke-linecap:round"></path><path d="M135.39583040082996,16.918664697377743L140.97230280616503,13.858005862135423L189.0309382391402,23.2181303534254z" style="fill:rgb(255,187,187); fill-opacity: 0.4"></path><path d="M135.39582623408626,6.334927886802249L189.03094371566743,23.21813146292373" style="fill:none;stroke:rgb(0,0,0);stroke-width:1;stroke-linecap:round"></path><path d="M208.9809857645505,52.753921484635036L184.00174236861662,66.46383277627709L184.00174236861662,19.055060112072827z" style="fill:rgb(170,170,170); fill-opacity: 0.4"></path><path d="M195.7431200090137,24.37935820997211L312.975637211461,45.801031651746406" style="fill:none;stroke:rgb(0,0,0);stroke-width:1;stroke-linecap:round"></path><path d="M140.97230280616503,3.2742700642860276L135.39583040082996,6.33492889952835L189.0309382391402,23.2181303534254z" style="fill:rgb(255,187,187); fill-opacity: 0.4"></path><path d="M184.00174236861662,66.46383277627709L208.9809857645505,52.753921484635036L326.21350296699785,74.17559492640935z" style="fill:rgb(170,170,170); fill-opacity: 0.4"></path><path d="M135.39583040082996,6.33492889952835L135.39583040082996,16.918664697377743L189.0309382391402,23.2181303534254z" style="fill:rgb(255,187,187); fill-opacity: 0.4"></path><path d="M184.00174236861668,19.055060112072823L184.00174236861668,66.46383277627707M184.00174236861668,66.46383277627707L301.234259571064,87.88550621805138" style="fill:none;stroke:rgb(0,0,0);stroke-width:1;stroke-linecap:round"></path><path d="M317.15799151546236,51.443339373701725L199.92547431301497,30.02166593192742L199.92547431301497,22.083864083540373zM195.74312000901364,32.317160058359164L199.92547431301497,30.02166593192742L317.15799151546236,51.443339373701725zM195.74312000901364,24.379358209972114L312.97563721146105,45.80103165174642L199.92547431301497,22.083864083540373z" style="fill:rgb(153,221,255); fill-opacity: 0.4"></path><path d="M326.21350296699785,26.766822262205093L326.21350296699785,74.17559492640935L208.9809857645505,5.345148820430786z" style="fill:rgb(170,170,170); fill-opacity: 0.4"></path><path d="M195.74312000901364,24.379358209972114L195.74312000901364,32.317160058359164L312.97563721146105,45.80103165174642z" style="fill:rgb(153,221,255); fill-opacity: 0.4"></path><path d="M184.00174236861668,19.055060112072823L301.234259571064,40.476733553847126M326.21350296699785,26.766822262205082L326.21350296699785,74.17559492640933M326.21350296699785,74.17559492640933L301.234259571064,87.88550621805138" style="fill:none;stroke:rgb(0,0,0);stroke-width:1;stroke-linecap:round"></path><path d="M184.00174236861662,19.055060112072827L301.23425957106406,40.47673355384713L208.9809857645505,5.345148820430786z" style="fill:rgb(170,170,170); fill-opacity: 0.4"></path><path d="M317.15799151546236,43.50553752531468L317.15799151546236,51.443339373701725L199.92547431301497,22.083864083540373z" style="fill:rgb(153,221,255); fill-opacity: 0.4"></path><path d="M301.23425957106406,87.88550621805139L184.00174236861662,66.46383277627709L326.21350296699785,74.17559492640935z" style="fill:rgb(170,170,170); fill-opacity: 0.4"></path><path d="M312.97563721146105,53.73883350013347L195.74312000901364,32.317160058359164L317.15799151546236,51.443339373701725zM312.97563721146105,45.80103165174642L317.15799151546236,43.50553752531468L199.92547431301497,22.083864083540373z" style="fill:rgb(153,221,255); fill-opacity: 0.4"></path><path d="M301.23425957106406,40.47673355384713L326.21350296699785,26.766822262205093L208.9809857645505,5.345148820430786zM184.00174236861662,19.055060112072827L184.00174236861662,66.46383277627709L301.23425957106406,40.47673355384713z" style="fill:rgb(170,170,170); fill-opacity: 0.4"></path><path d="M195.74312000901364,32.317160058359164L312.97563721146105,53.73883350013347L312.97563721146105,45.80103165174642z" style="fill:rgb(153,221,255); fill-opacity: 0.4"></path><path d="M326.21350296699785,26.766822262205082L301.234259571064,40.476733553847126" style="fill:none;stroke:rgb(0,0,0);stroke-width:1;stroke-linecap:round"></path><path d="M301.23425957106406,87.88550621805139L326.21350296699785,74.17559492640935L326.21350296699785,26.766822262205093z" style="fill:rgb(170,170,170); fill-opacity: 0.4"></path><path d="M317.1579915154623,43.505537525314665L317.1579915154623,51.44333937370171M317.1579915154623,51.44333937370171L312.975637211461,53.73883350013345M317.15799604909233,43.505537897393154L317.15799604909233,51.443340376620014M317.15799604909233,51.443340376620014L312.9756418281869,53.738834457444376M317.15799604909233,51.443340376620014L363.0859990713633,59.421831620901315" style="fill:none;stroke:rgb(0,0,0);stroke-width:1;stroke-linecap:round"></path><path d="M184.00174236861662,66.46383277627709L301.23425957106406,87.88550621805139L301.23425957106406,40.47673355384713z" style="fill:rgb(170,170,170); fill-opacity: 0.4"></path><path d="M317.1579915154623,43.505537525314665L312.975637211461,45.801031651746406M317.15799604909233,43.505537897393154L312.9756418281869,45.80103197821753M317.15799604909233,43.505537897393154L363.0859990713633,59.421831620901315" style="fill:none;stroke:rgb(0,0,0);stroke-width:1;stroke-linecap:round"></path><path d="M312.97563721146105,53.73883350013347L317.15799151546236,51.443339373701725L317.15799151546236,43.50553752531468z" style="fill:rgb(153,221,255); fill-opacity: 0.4"></path><path d="M317.15799250650645,43.505537706406265L317.15799250650645,51.44333955479331L312.97563820250514,53.73883368122505z" style="fill:rgb(255,187,187); fill-opacity: 0.4"></path><path d="M312.97563721146105,45.80103165174642L312.97563721146105,53.73883350013347L317.15799151546236,43.50553752531468z" style="fill:rgb(153,221,255); fill-opacity: 0.4"></path><path d="M317.15799250650645,43.505537706406265L312.97563820250514,53.73883368122505L312.97563820250514,45.80103183283801z" style="fill:rgb(255,187,187); fill-opacity: 0.4"></path><path d="M312.975637211461,45.801031651746406L312.975637211461,53.73883350013345M312.9756418281869,53.738834457444376L312.9756418281869,45.80103197821753M312.9756418281869,53.738834457444376L363.0859990713633,59.421831620901315M505.6902730113742,103.67455996376324L371.71025071803564,79.1926469776824M371.71025071803564,42.512213736537255L371.71025071803564,79.1926469776824M371.71025071803564,79.1926469776824L352.3836700387877,89.80008221835041M312.9756418281869,45.80103197821753L363.0859990713633,59.421831620901315" style="fill:none;stroke:rgb(0,0,0);stroke-width:1;stroke-linecap:round"></path><path d="M317.15799250650645,51.44333955479331L317.15799250650645,43.505537706406265L363.08599543750665,59.42183080146789zM312.97563820250514,53.73883368122505L317.15799250650645,51.44333955479331L363.08599543750665,59.42183080146789z" style="fill:rgb(255,187,187); fill-opacity: 0.4"></path><path d="M301.23425957106406,40.47673355384713L301.23425957106406,87.88550621805139L326.21350296699785,26.766822262205093z" style="fill:rgb(170,170,170); fill-opacity: 0.4"></path><path d="M317.15799250650645,43.505537706406265L312.97563820250514,45.80103183283801L363.08599543750665,59.42183080146789zM312.97563820250514,45.80103183283801L312.97563820250514,53.73883368122505L363.08599543750665,59.42183080146789z" style="fill:rgb(255,187,187); fill-opacity: 0.4"></path><path d="M301.234259571064,40.476733553847126L301.234259571064,87.88550621805138M505.6902730113742,66.99412672261809L371.71025071803564,42.512213736537255M371.71025071803564,42.512213736537255L352.3836700387877,53.11964897720525" style="fill:none;stroke:rgb(0,0,0);stroke-width:1;stroke-linecap:round"></path><path d="M371.7102507180357,42.512213736537255L371.7102507180357,79.1926469776824L352.3836700387877,53.11964897720525zM371.7102507180357,79.1926469776824L352.3836700387877,89.80008221835041L352.3836700387877,53.11964897720525zM505.6902730113742,103.67455996376324L371.7102507180357,79.1926469776824L371.7102507180357,42.512213736537255z" style="fill:rgb(170,170,170); fill-opacity: 0.4"></path><path d="M352.3836700387877,53.11964897720525L352.3836700387877,89.80008221835041M352.3836700387877,89.80008221835041L486.3636923321262,114.28199520443123" style="fill:none;stroke:rgb(0,0,0);stroke-width:1;stroke-linecap:round"></path><path d="M352.3836700387877,89.80008221835041L371.7102507180357,79.1926469776824L505.6902730113742,103.67455996376324z" style="fill:rgb(170,170,170); fill-opacity: 0.4"></path><path d="M352.3836700387877,53.11964897720525L486.3636923321262,77.60156196328609" style="fill:none;stroke:rgb(0,0,0);stroke-width:1;stroke-linecap:round"></path><path d="M505.6902730113742,66.9941267226181L505.6902730113742,103.67455996376324L371.7102507180357,42.512213736537255zM352.3836700387877,53.11964897720525L486.3636923321262,77.6015619632861L371.7102507180357,42.512213736537255zM352.3836700387877,53.11964897720525L352.3836700387877,89.80008221835041L486.3636923321262,77.6015619632861zM486.3636923321262,114.28199520443124L352.3836700387877,89.80008221835041L505.6902730113742,103.67455996376324zM486.3636923321262,77.6015619632861L505.6902730113742,66.9941267226181L371.7102507180357,42.512213736537255z" style="fill:rgb(170,170,170); fill-opacity: 0.4"></path><path d="M505.6902730113742,66.99412672261809L505.6902730113742,103.67455996376324M505.6902730113742,103.67455996376324L486.3636923321262,114.28199520443123" style="fill:none;stroke:rgb(0,0,0);stroke-width:1;stroke-linecap:round"></path><path d="M352.3836700387877,89.80008221835041L486.3636923321262,114.28199520443124L486.3636923321262,77.6015619632861z" style="fill:rgb(170,170,170); fill-opacity: 0.4"></path><path d="M574.3029600938804,202.27773958425084L557.5554573072131,199.2175004609907M557.5554573072131,-2.524889935385342L557.5554573072131,199.2175004609907M557.5554573072131,199.2175004609907L547.8921669675892,204.52121808132472M505.6902730113742,66.99412672261809L486.3636923321262,77.60156196328609" style="fill:none;stroke:rgb(0,0,0);stroke-width:1;stroke-linecap:round"></path><path d="M486.3636923321262,114.28199520443124L505.6902730113742,103.67455996376324L505.6902730113742,66.9941267226181zM547.8921669675892,204.5212180813247L557.5554573072131,199.2175004609907L574.3029600938803,202.2777395842508z" style="fill:rgb(170,170,170); fill-opacity: 0.4"></path><path d="M574.3029600938804,0.5353491878747573L574.3029600938804,202.27773958425084M574.3029600938804,202.27773958425084L564.6396697542565,207.5814572045848M547.8921669675892,2.778827684948652L547.8921669675892,204.52121808132472M547.8921669675892,204.52121808132472L564.6396697542565,207.5814572045848M506.81688777311723,92.60967966680707L534.1999654778186,97.61333703439448" style="fill:none;stroke:rgb(0,0,0);stroke-width:1;stroke-linecap:round"></path><path d="M564.6396697542565,207.58145720458484L547.8921669675892,204.5212180813247L574.3029600938803,202.2777395842508zM486.3636923321262,77.6015619632861L486.3636923321262,114.28199520443124L505.6902730113742,66.9941267226181z" style="fill:rgb(170,170,170); fill-opacity: 0.4"></path><path d="M486.3636923321262,77.60156196328609L486.3636923321262,114.28199520443123M564.6396697542565,5.839066808208751L564.6396697542565,207.5814572045848" style="fill:none;stroke:rgb(0,0,0);stroke-width:1;stroke-linecap:round"></path><path d="M574.3029600938803,202.2777395842508L557.5554573072131,199.2175004609907L557.5554573072131,-2.5248899353853482zM557.5554573072131,199.2175004609907L547.8921669675892,204.5212180813247L547.8921669675892,2.7788276849486455z" style="fill:rgb(170,170,170); fill-opacity: 0.4"></path><path d="M530.885252633261,101.47672073088252L534.1999654778186,104.22817190805034L550.3076582452901,100.55666489768117zM536.2485705986702,91.13744183968272L532.1513603569671,93.38620446497903L550.3076582452901,100.55666489768117z" style="fill:rgb(0,0,0)"></path><path d="M639.3735411369424,214.167962288962L622.6260383502752,211.10772316570194M622.6260383502752,9.365332769325855L622.6260383502752,211.10772316570194M622.6260383502752,211.10772316570194L612.9627480106512,216.41144078603588" style="fill:none;stroke:rgb(0,0,0);stroke-width:1;stroke-linecap:round"></path><path d="M564.6396697542565,207.58145720458484L574.3029600938803,202.2777395842508L574.3029600938803,0.5353491878747645z" style="fill:rgb(170,170,170); fill-opacity: 0.4"></path><path d="M532.1513603569671,93.38620446497903L530.885252633261,101.47672073088252L550.3076582452901,100.55666489768117z" style="fill:rgb(0,0,0)"></path><path d="M612.9627480106512,216.41144078603588L622.626038350275,211.1077231657019L639.3735411369424,214.16796228896203zM547.8921669675892,204.5212180813247L564.6396697542565,207.58145720458484L564.6396697542565,5.839066808208759z" style="fill:rgb(170,170,170); fill-opacity: 0.4"></path><path d="M639.3735411369424,12.425571892585955L639.3735411369424,214.167962288962M639.3735411369424,214.167962288962L629.7102507973184,219.47167990929603" style="fill:none;stroke:rgb(0,0,0);stroke-width:1;stroke-linecap:round"></path><path d="M557.5554573072131,-2.5248899353853482L557.5554573072131,199.2175004609907L547.8921669675892,2.7788276849486455zM574.3029600938803,0.5353491878747645L574.3029600938803,202.2777395842508L557.5554573072131,-2.5248899353853482z" style="fill:rgb(170,170,170); fill-opacity: 0.4"></path><path d="M612.9627480106512,14.66905038965985L612.9627480106512,216.41144078603588M612.9627480106512,216.41144078603588L629.7102507973184,219.47167990929603M571.8874688161793,104.49990237151827L599.2705465208808,109.50355973910568" style="fill:none;stroke:rgb(0,0,0);stroke-width:1;stroke-linecap:round"></path><path d="M629.7102507973185,219.471679909296L612.9627480106512,216.41144078603588L639.3735411369424,214.16796228896203z" style="fill:rgb(170,170,170); fill-opacity: 0.4"></path><path d="M629.7102507973184,17.729289512919948L629.7102507973184,219.47167990929603" style="fill:none;stroke:rgb(0,0,0);stroke-width:1;stroke-linecap:round"></path><path d="M639.3735411369424,214.16796228896203L622.626038350275,211.1077231657019L622.626038350275,9.365332769325848zM547.8921669675892,2.7788276849486455L547.8921669675892,204.5212180813247L564.6396697542565,5.839066808208759zM564.6396697542565,5.839066808208759L564.6396697542565,207.58145720458484L574.3029600938803,0.5353491878747645z" style="fill:rgb(170,170,170); fill-opacity: 0.4"></path><path d="M574.3029600938804,0.5353491878747573L557.5554573072131,-2.524889935385342M557.5554573072131,-2.524889935385342L547.8921669675892,2.778827684948652" style="fill:none;stroke:rgb(0,0,0);stroke-width:1;stroke-linecap:round"></path><path d="M622.626038350275,211.1077231657019L612.9627480106512,216.41144078603588L612.9627480106512,14.669050389659843z" style="fill:rgb(170,170,170); fill-opacity: 0.4"></path><path d="M595.9558336763231,113.36694343559371L599.2705465208808,116.11839461276153L615.3782392883521,112.44688760239237zM601.3191516417323,103.02766454439391L597.2219414000292,105.27642716969022L615.3782392883521,112.44688760239237z" style="fill:rgb(0,0,0)"></path><path d="M704.4441221800047,226.05818499367322L687.6966193933374,222.99794587041316M687.6966193933374,21.25555547403708L687.6966193933374,222.99794587041316M687.6966193933374,222.99794587041316L678.0333290537134,228.30166349074713" style="fill:none;stroke:rgb(0,0,0);stroke-width:1;stroke-linecap:round"></path><path d="M629.7102507973185,219.471679909296L639.3735411369424,214.16796228896203L639.3735411369424,12.425571892585962z" style="fill:rgb(170,170,170); fill-opacity: 0.4"></path><path d="M597.2219414000292,105.27642716969022L595.9558336763231,113.36694343559371L615.3782392883521,112.44688760239237z" style="fill:rgb(0,0,0)"></path><path d="M574.3029600938804,0.5353491878747573L564.6396697542565,5.839066808208751" style="fill:none;stroke:rgb(0,0,0);stroke-width:1;stroke-linecap:round"></path><path d="M564.6396697542565,5.839066808208759L574.3029600938803,0.5353491878747645L557.5554573072131,-2.5248899353853482zM678.0333290537134,228.30166349074713L687.6966193933373,222.99794587041313L704.4441221800047,226.05818499367322zM612.9627480106512,216.41144078603588L629.7102507973185,219.471679909296L629.7102507973185,17.729289512919955z" style="fill:rgb(170,170,170); fill-opacity: 0.4"></path><path d="M704.4441221800047,24.315794597297177L704.4441221800047,226.05818499367322M704.4441221800047,226.05818499367322L694.7808318403806,231.36190261400725" style="fill:none;stroke:rgb(0,0,0);stroke-width:1;stroke-linecap:round"></path><path d="M547.8921669675892,2.7788276849486455L564.6396697542565,5.839066808208759L557.5554573072131,-2.5248899353853482z" style="fill:rgb(170,170,170); fill-opacity: 0.4"></path><path d="M547.8921669675892,2.778827684948652L564.6396697542565,5.839066808208751" style="fill:none;stroke:rgb(0,0,0);stroke-width:1;stroke-linecap:round"></path><path d="M622.626038350275,9.365332769325848L622.626038350275,211.1077231657019L612.9627480106512,14.669050389659843zM639.3735411369424,12.425571892585962L639.3735411369424,214.16796228896203L622.626038350275,9.365332769325848z" style="fill:rgb(170,170,170); fill-opacity: 0.4"></path><path d="M678.0333290537134,26.559273094371072L678.0333290537134,228.30166349074713M678.0333290537134,228.30166349074713L694.7808318403806,231.36190261400725M636.9580498592416,116.39012507622948L664.341127563943,121.39378244381689" style="fill:none;stroke:rgb(0,0,0);stroke-width:1;stroke-linecap:round"></path><path d="M694.7808318403808,231.36190261400722L678.0333290537134,228.30166349074713L704.4441221800047,226.05818499367322z" style="fill:rgb(170,170,170); fill-opacity: 0.4"></path><path d="M694.7808318403806,29.619512217631172L694.7808318403806,231.36190261400725" style="fill:none;stroke:rgb(0,0,0);stroke-width:1;stroke-linecap:round"></path><path d="M704.4441221800047,226.05818499367322L687.6966193933373,222.99794587041313L687.6966193933373,21.255555474037074zM612.9627480106512,14.669050389659843L612.9627480106512,216.41144078603588L629.7102507973185,17.729289512919955zM629.7102507973185,17.729289512919955L629.7102507973185,219.471679909296L639.3735411369424,12.425571892585962z" style="fill:rgb(170,170,170); fill-opacity: 0.4"></path><path d="M639.3735411369424,12.425571892585955L622.6260383502752,9.365332769325855M622.6260383502752,9.365332769325855L612.9627480106512,14.66905038965985" style="fill:none;stroke:rgb(0,0,0);stroke-width:1;stroke-linecap:round"></path><path d="M687.6966193933373,222.99794587041313L678.0333290537134,228.30166349074713L678.0333290537134,26.55927309437107z" style="fill:rgb(170,170,170); fill-opacity: 0.4"></path><path d="M661.0264147193852,125.2571661403049L664.3411275639429,128.00861731747273L680.4488203314143,124.3371103071036zM666.3897326847945,114.91788724910512L662.2925224430913,117.16664987440144L680.4488203314143,124.3371103071036z" style="fill:rgb(0,0,0)"></path><path d="M694.7808318403808,231.36190261400722L704.4441221800047,226.05818499367322L704.4441221800047,24.315794597297174z" style="fill:rgb(170,170,170); fill-opacity: 0.4"></path><path d="M662.2925224430913,117.16664987440144L661.0264147193852,125.2571661403049L680.4488203314143,124.3371103071036z" style="fill:rgb(0,0,0)"></path><path d="M639.3735411369424,12.425571892585955L629.7102507973184,17.729289512919948" style="fill:none;stroke:rgb(0,0,0);stroke-width:1;stroke-linecap:round"></path><path d="M629.7102507973185,17.729289512919955L639.3735411369424,12.425571892585962L622.626038350275,9.365332769325848zM678.0333290537134,228.30166349074713L694.7808318403808,231.36190261400722L694.7808318403808,29.619512217631165zM612.9627480106512,14.669050389659843L629.7102507973185,17.729289512919955L622.626038350275,9.365332769325848z" style="fill:rgb(170,170,170); fill-opacity: 0.4"></path><path d="M612.9627480106512,14.66905038965985L629.7102507973184,17.729289512919948" style="fill:none;stroke:rgb(0,0,0);stroke-width:1;stroke-linecap:round"></path><path d="M687.6966193933373,21.255555474037074L687.6966193933373,222.99794587041313L678.0333290537134,26.55927309437107zM704.4441221800047,24.315794597297174L704.4441221800047,226.05818499367322L687.6966193933373,21.255555474037074z" style="fill:rgb(170,170,170); fill-opacity: 0.4"></path><path d="M702.0286309023038,128.2803477809407L729.4117086070052,133.2840051485281M769.5147032230668,182.92775531330747L752.7672004363997,179.86751619004735M752.7672004363997,88.16643056382524L752.7672004363997,179.86751619004735M752.7672004363997,179.86751619004735L743.1039100967756,185.17123381038135" style="fill:none;stroke:rgb(0,0,0);stroke-width:1;stroke-linecap:round"></path><path d="M743.1039100967756,185.17123381038138L752.7672004363995,179.86751619004735L769.5147032230668,182.9277553133075z" style="fill:rgb(170,170,170); fill-opacity: 0.4"></path><path d="M769.5147032230668,91.22666968708535L769.5147032230668,182.92775531330747M769.5147032230668,182.92775531330747L759.8514128834429,188.23147293364147" style="fill:none;stroke:rgb(0,0,0);stroke-width:1;stroke-linecap:round"></path><path d="M678.0333290537134,26.55927309437107L678.0333290537134,228.30166349074713L694.7808318403808,29.619512217631165zM694.7808318403808,29.619512217631165L694.7808318403808,231.36190261400722L704.4441221800047,24.315794597297174zM769.5147032230668,182.9277553133075L752.7672004363995,179.86751619004735L752.7672004363995,88.16643056382527z" style="fill:rgb(170,170,170); fill-opacity: 0.4"></path><path d="M704.4441221800047,24.315794597297177L687.6966193933374,21.25555547403708M687.6966193933374,21.25555547403708L678.0333290537134,26.559273094371072M743.1039100967756,93.47014818415924L743.1039100967756,185.17123381038135M743.1039100967756,185.17123381038135L759.8514128834429,188.23147293364147" style="fill:none;stroke:rgb(0,0,0);stroke-width:1;stroke-linecap:round"></path><path d="M759.851412883443,188.23147293364147L743.1039100967756,185.17123381038138L769.5147032230668,182.9277553133075z" style="fill:rgb(170,170,170); fill-opacity: 0.4"></path><path d="M726.0969957624474,137.14738884501614L729.411708607005,139.89884002218398L745.5194013744765,136.2273330118148zM731.4603137278566,126.80810995381634L727.3631034861536,129.05687257911265L745.5194013744765,136.2273330118148zM727.3631034861536,129.05687257911265L726.0969957624474,137.14738884501614L745.5194013744765,136.2273330118148z" style="fill:rgb(0,0,0)"></path><path d="M752.7672004363995,179.86751619004735L743.1039100967756,185.17123381038138L743.1039100967756,93.47014818415927z" style="fill:rgb(170,170,170); fill-opacity: 0.4"></path><path d="M704.4441221800047,24.315794597297177L694.7808318403806,29.619512217631172" style="fill:none;stroke:rgb(0,0,0);stroke-width:1;stroke-linecap:round"></path><path d="M759.851412883443,188.23147293364147L769.5147032230668,182.9277553133075L769.5147032230668,91.22666968708538zM694.7808318403808,29.619512217631165L704.4441221800047,24.315794597297174L687.6966193933373,21.255555474037074z" style="fill:rgb(170,170,170); fill-opacity: 0.4"></path><path d="M759.8514128834429,96.53038730741935L759.8514128834429,188.23147293364147" style="fill:none;stroke:rgb(0,0,0);stroke-width:1;stroke-linecap:round"></path><path d="M752.7672004363995,88.16643056382527L752.7672004363995,179.86751619004735L743.1039100967756,93.47014818415927zM769.5147032230668,91.22666968708538L769.5147032230668,182.9277553133075L752.7672004363995,88.16643056382527zM678.0333290537134,26.55927309437107L694.7808318403808,29.619512217631165L687.6966193933373,21.255555474037074z" style="fill:rgb(170,170,170); fill-opacity: 0.4"></path><path d="M678.0333290537134,26.559273094371072L694.7808318403806,29.619512217631172M769.5147032230668,91.22666968708535L752.7672004363997,88.16643056382524M752.7672004363997,88.16643056382524L743.1039100967756,93.47014818415924" style="fill:none;stroke:rgb(0,0,0);stroke-width:1;stroke-linecap:round"></path><path d="M743.1039100967756,185.17123381038138L759.851412883443,188.23147293364147L759.851412883443,96.53038730741937zM743.1039100967756,93.47014818415927L743.1039100967756,185.17123381038138L759.851412883443,96.53038730741937z" style="fill:rgb(170,170,170); fill-opacity: 0.4"></path><path d="M769.5147032230668,91.22666968708535L759.8514128834429,96.53038730741935" style="fill:none;stroke:rgb(0,0,0);stroke-width:1;stroke-linecap:round"></path><path d="M759.851412883443,96.53038730741937L759.851412883443,188.23147293364147L769.5147032230668,91.22666968708538zM759.851412883443,96.53038730741937L769.5147032230668,91.22666968708538L752.7672004363995,88.16643056382527zM743.1039100967756,93.47014818415927L759.851412883443,96.53038730741937L752.7672004363995,88.16643056382527z" style="fill:rgb(170,170,170); fill-opacity: 0.4"></path><path d="M743.1039100967756,93.47014818415924L759.8514128834429,96.53038730741935" style="fill:none;stroke:rgb(0,0,0);stroke-width:1;stroke-linecap:round"></path></svg>