<svg viewBox="-960 -487.5 1920 975" width="1920" height="975" style="background-color: rgb(255, 255, 255);" xmlns="http://www.w3.org/2000/svg"><path d="M-135.6754137691253,3.2059378202601554L-137.19006786164869,2.9616630194517084M-137.19006786164869,-81.80399242956054L-137.19006786164869,2.9616630194517084M-137.19006786164869,2.9616630194517084L-175.27716848366924,31.41105301574602M-135.67541376912527,-81.5597176287521L-135.6754137691253,3.2059378202601554M-135.6754137691253,3.2059378202601554L-173.76251439114586,31.65532781655447" style="fill:none;stroke:rgb(0,0,0);stroke-width:1;stroke-linecap:round"></path><path d="M-135.6754137691253,3.205937820260153L-137.1900678616487,2.9616630194517097L-137.19006786164869,-81.80399242956054zM-135.67541376912527,-81.5597176287521L-135.6754137691253,3.205937820260153L-137.19006786164869,-81.80399242956054z" style="fill:rgb(170,170,170); fill-opacity: 0.4"></path><path d="M-67.20025239872248,10.223786979108755L-109.19538106436514,3.451051382009777M-109.19538106436512,-67.71313388373417L-109.19538106436514,3.451051382009777M-109.19538106436514,3.451051382009777L-141.17103760288936,27.33546128445551" style="fill:none;stroke:rgb(0,0,0);stroke-width:1;stroke-linecap:round"></path><path d="M-175.27716848366924,31.411053015746027L-137.1900678616487,2.9616630194517097L-135.6754137691253,3.205937820260153z" style="fill:rgb(170,170,170); fill-opacity: 0.4"></path><path d="M-135.67541376912527,-81.5597176287521L-137.19006786164869,-81.80399242956054M-137.19006786164869,-81.80399242956054L-175.27716848366921,-53.35460243326623M-135.67541376912527,-81.5597176287521L-173.76251439114586,-53.11032763245778" style="fill:none;stroke:rgb(0,0,0);stroke-width:1;stroke-linecap:round"></path><path d="M-173.76251439114586,31.65532781655447L-135.6754137691253,3.205937820260153L-135.67541376912527,-81.5597176287521zM-67.20025239872248,10.223786979108757L-109.19538106436514,3.451051382009778L-109.19538106436512,-67.71313388373417z" style="fill:rgb(170,170,170); fill-opacity: 0.4"></path><path d="M-67.20025239872248,-60.94039828663519L-67.20025239872248,10.223786979108755M-67.20025239872248,10.223786979108755L-99.17590893724673,34.10819688155449" style="fill:none;stroke:rgb(0,0,0);stroke-width:1;stroke-linecap:round"></path><path d="M-137.19006786164869,-81.80399242956054L-137.1900678616487,2.9616630194517097L-175.27716848366921,-53.35460243326622z" style="fill:rgb(170,170,170); fill-opacity: 0.4"></path><path d="M-67.20025239872248,-60.94039828663519L-109.19538106436512,-67.71313388373417M-109.19538106436512,-67.71313388373417L-141.17103760288936,-43.828723981288434" style="fill:none;stroke:rgb(0,0,0);stroke-width:1;stroke-linecap:round"></path><path d="M-141.17103760288936,27.335461284455512L-109.19538106436514,3.451051382009778L-67.20025239872248,10.223786979108757z" style="fill:rgb(170,170,170); fill-opacity: 0.4"></path><path d="M-78.64615733548742,5.271668253331848L-120.64128600113006,-1.5010673437671342M-120.64128600113006,-10.899205047147627L-120.64128600113006,-1.5010673437671342M-120.64128600113006,-1.5010673437671342L-124.86407899992388,1.6531734079389278" style="fill:none;stroke:rgb(0,0,0);stroke-width:1;stroke-linecap:round"></path><path d="M-173.76251439114586,31.65532781655447L-175.27716848366924,31.411053015746027L-135.6754137691253,3.205937820260153zM-67.20025239872247,-60.9403982866352L-67.20025239872248,10.223786979108757L-109.19538106436512,-67.71313388373417z" style="fill:rgb(170,170,170); fill-opacity: 0.4"></path><path d="M-78.64615733548742,-4.126469450048646L-120.64128600113006,-10.899205047147627M-120.64128600113006,-10.899205047147627L-124.86407899992388,-7.744964295441565" style="fill:none;stroke:rgb(0,0,0);stroke-width:1;stroke-linecap:round"></path><path d="M-120.64128600113006,-10.899205047147627L-120.64128600113006,-1.501067343767133L-124.86407899992385,-7.744964295441565zM-120.64128600113006,-1.501067343767133L-124.86407899992385,1.653173407938929L-124.86407899992385,-7.744964295441565z" style="fill:rgb(153,221,255); fill-opacity: 0.4"></path><path d="M-173.76251439114583,-53.110327632457775L-135.67541376912527,-81.5597176287521L-137.19006786164869,-81.80399242956054z" style="fill:rgb(170,170,170); fill-opacity: 0.4"></path><path d="M-78.64615733548742,5.271668253331845L-120.64128600113006,-1.501067343767133L-120.64128600113006,-10.899205047147627z" style="fill:rgb(153,221,255); fill-opacity: 0.4"></path><path d="M-124.86407899992388,-7.744964295441565L-124.86407899992388,1.6531734079389278M-124.86407899992388,1.6531734079389278L-82.86895033428122,8.42590900503791" style="fill:none;stroke:rgb(0,0,0);stroke-width:1;stroke-linecap:round"></path><path d="M-124.86407899992385,1.653173407938929L-120.64128600113006,-1.501067343767133L-78.64615733548742,5.271668253331845z" style="fill:rgb(153,221,255); fill-opacity: 0.4"></path><path d="M-109.19538106436512,-67.71313388373417L-109.19538106436514,3.451051382009778L-141.17103760288936,-43.82872398128843zM-137.1900678616487,2.9616630194517097L-175.27716848366924,31.411053015746027L-175.27716848366921,-53.35460243326622z" style="fill:rgb(170,170,170); fill-opacity: 0.4"></path><path d="M-124.86407899992388,-7.744964295441565L-82.86895033428122,-0.972228698342584M12.110162199243119,18.434671424609277L-40.38375007729689,9.96875169527695M-40.38375007729689,-45.72066833702275L-40.38375007729689,9.96875169527695M-40.38375007729689,9.96875169527695L-65.40624926186352,28.659458689447916" style="fill:none;stroke:rgb(0,0,0);stroke-width:1;stroke-linecap:round"></path><path d="M-78.64615733548742,-4.126469450048649L-78.64615733548742,5.271668253331845L-120.64128600113006,-10.899205047147627zM-124.86407899992385,-7.744964295441565L-82.86895033428122,-0.972228698342587L-120.64128600113006,-10.899205047147627z" style="fill:rgb(153,221,255); fill-opacity: 0.4"></path><path d="M-67.20025239872248,-60.94039828663519L-99.17590893724672,-37.055988384189455" style="fill:none;stroke:rgb(0,0,0);stroke-width:1;stroke-linecap:round"></path><path d="M-124.86407899992385,-7.744964295441565L-124.86407899992385,1.653173407938929L-82.86895033428122,-0.972228698342587zM-82.86895033428122,8.425909005037909L-124.86407899992385,1.653173407938929L-78.64615733548742,5.271668253331845z" style="fill:rgb(153,221,255); fill-opacity: 0.4"></path><path d="M-78.64615852240279,-4.126470221016437L-78.64615852240279,5.271667482364056M-78.64615852240279,5.271667482364056L-82.8689515211966,8.42590823407012M-78.64615852240279,5.271667482364056L-50.99299516903927,3.6504037434594707M-78.64615733548742,-4.126469450048646L-78.64615733548742,5.271668253331848M-78.64615733548742,5.271668253331848L-82.86895033428122,8.42590900503791M-161.54796693906968,-21.880116659023702L-163.0626210315931,-22.124391459832143M-163.0626210315931,-33.08888544710939L-163.0626210315931,-22.124391459832143M-163.0626210315931,-22.124391459832143L-167.9892128635192,-18.44444391617507" style="fill:none;stroke:rgb(0,0,0);stroke-width:1;stroke-linecap:round"></path><path d="M-82.86895033428122,-0.972228698342587L-78.64615733548742,-4.126469450048649L-120.64128600113006,-10.899205047147627z" style="fill:rgb(153,221,255); fill-opacity: 0.4"></path><path d="M-162.30528968261135,-32.96674755302931L-162.30528968261135,-22.002253192303634M-162.30528968261135,-22.002253192303634L-167.2318808433426,-18.322306149999626M-162.30528968261135,-22.002253192303634L-132.98446380666473,-20.667537436621497M-161.54796693906968,-32.84461064630094L-161.54796693906968,-21.880116659023702M-161.54796693906968,-21.880116659023702L-166.4745587709958,-18.200169115366627" style="fill:none;stroke:rgb(0,0,0);stroke-width:1;stroke-linecap:round"></path><path d="M-161.54796693906968,-21.880116659023702L-163.0626210315931,-22.124391459832143L-163.0626210315931,-33.088885447109384z" style="fill:rgb(153,221,255); fill-opacity: 0.4"></path><path d="M-99.17590893724673,34.10819688155449L-67.20025239872248,10.223786979108757L-67.20025239872247,-60.9403982866352z" style="fill:rgb(170,170,170); fill-opacity: 0.4"></path><path d="M-161.54796693906968,-32.84461064630094L-161.54796693906968,-21.880116659023702L-163.0626210315931,-33.088885447109384z" style="fill:rgb(153,221,255); fill-opacity: 0.4"></path><path d="M-78.64615852240279,-4.126470221016437L-82.86895152119659,-0.9722294693103739M-78.64615852240279,-4.126470221016437L-50.99299516903927,3.6504037434594707M-78.64615733548742,-4.126469450048646L-82.86895033428122,-0.972228698342584" style="fill:none;stroke:rgb(0,0,0);stroke-width:1;stroke-linecap:round"></path><path d="M-167.9892128635192,-18.444443916175075L-163.0626210315931,-22.124391459832143L-161.54796693906968,-21.880116659023702zM-124.86407899992385,1.653173407938929L-82.86895033428122,8.425909005037909L-82.86895033428122,-0.972228698342587z" style="fill:rgb(153,221,255); fill-opacity: 0.4"></path><path d="M-78.64615739318526,-4.126469459353829L-78.64615739318526,5.271668244026666L-82.86895039197907,8.425908995732728z" style="fill:rgb(255,187,187); fill-opacity: 0.4"></path><path d="M-82.86895033428122,8.425909005037909L-78.64615733548742,5.271668253331845L-78.64615733548742,-4.126469450048649z" style="fill:rgb(153,221,255); fill-opacity: 0.4"></path><path d="M-161.54796693906968,-32.84461064630094L-163.0626210315931,-33.08888544710939M-163.0626210315931,-33.08888544710939L-167.9892128635192,-29.408937903452312" style="fill:none;stroke:rgb(0,0,0);stroke-width:1;stroke-linecap:round"></path><path d="M-173.76251439114583,-53.110327632457775L-173.76251439114586,31.65532781655447L-135.67541376912527,-81.5597176287521z" style="fill:rgb(170,170,170); fill-opacity: 0.4"></path><path d="M-162.30528968261135,-32.96674755302931L-167.2318808433426,-29.286800510725307M-162.30528968261135,-32.96674755302931L-132.98446380666473,-20.667537436621497M-161.54796693906968,-32.84461064630094L-166.4745587709958,-29.164663102643868" style="fill:none;stroke:rgb(0,0,0);stroke-width:1;stroke-linecap:round"></path><path d="M-162.3052939853314,-32.966748046705156L-162.3052939853314,-22.002254059427923L-167.2318858172575,-18.32230651577085z" style="fill:rgb(255,187,187); fill-opacity: 0.4"></path><path d="M-166.4745587709958,-18.20016911536663L-161.54796693906968,-21.880116659023702L-161.54796693906968,-32.84461064630094z" style="fill:rgb(153,221,255); fill-opacity: 0.4"></path><path d="M-109.19538106436514,3.451051382009778L-141.17103760288936,27.335461284455512L-141.17103760288936,-43.82872398128843z" style="fill:rgb(170,170,170); fill-opacity: 0.4"></path><path d="M-163.0626210315931,-33.088885447109384L-163.0626210315931,-22.124391459832143L-167.9892128635192,-29.408937903452316zM-166.4745587709958,-18.20016911536663L-167.9892128635192,-18.444443916175075L-161.54796693906968,-21.880116659023702z" style="fill:rgb(153,221,255); fill-opacity: 0.4"></path><path d="M-162.3052939853314,-22.002254059427923L-162.3052939853314,-32.966748046705156L-132.98446828931452,-20.66753793282275z" style="fill:rgb(255,187,187); fill-opacity: 0.4"></path><path d="M-166.4745587709958,-29.16466310264387L-161.54796693906968,-32.84461064630094L-163.0626210315931,-33.088885447109384z" style="fill:rgb(153,221,255); fill-opacity: 0.4"></path><path d="M-78.64615739318526,-4.126469459353829L-82.86895039197907,8.425908995732728L-82.86895039197907,-0.9722287076477664z" style="fill:rgb(255,187,187); fill-opacity: 0.4"></path><path d="M-82.86895033428122,-0.972228698342587L-82.86895033428122,8.425909005037909L-78.64615733548742,-4.126469450048649zM-163.0626210315931,-22.124391459832143L-167.9892128635192,-18.444443916175075L-167.9892128635192,-29.408937903452316z" style="fill:rgb(153,221,255); fill-opacity: 0.4"></path><path d="M-175.27716848366921,-53.35460243326623L-175.27716848366924,31.41105301574602M-175.27716848366924,31.41105301574602L-173.76251439114586,31.65532781655447" style="fill:none;stroke:rgb(0,0,0);stroke-width:1;stroke-linecap:round"></path><path d="M-78.64615739318526,5.271668244026666L-78.64615739318526,-4.126469459353829L-50.99299399140563,3.6504032118784195z" style="fill:rgb(255,187,187); fill-opacity: 0.4"></path><path d="M-82.8689515211966,8.42590823407012L-82.86895152119659,-0.9722294693103739M-82.8689515211966,8.42590823407012L-50.99299516903927,3.6504037434594707M-82.86895033428122,-0.972228698342584L-82.86895033428122,8.42590900503791" style="fill:none;stroke:rgb(0,0,0);stroke-width:1;stroke-linecap:round"></path><path d="M-99.17590893724673,34.10819688155449L-141.17103760288936,27.335461284455512L-67.20025239872248,10.223786979108757z" style="fill:rgb(170,170,170); fill-opacity: 0.4"></path><path d="M-173.76251439114586,-53.11032763245778L-173.76251439114586,31.65532781655447" style="fill:none;stroke:rgb(0,0,0);stroke-width:1;stroke-linecap:round"></path><path d="M-167.2318858172575,-18.32230651577085L-162.3052939853314,-22.002254059427923L-132.98446828931452,-20.66753793282275z" style="fill:rgb(255,187,187); fill-opacity: 0.4"></path><path d="M12.110162199243122,18.434671424609274L-40.383750077296895,9.968751695276948L-40.38375007729689,-45.72066833702275z" style="fill:rgb(170,170,170); fill-opacity: 0.4"></path><path d="M-162.3052939853314,-32.966748046705156L-167.2318858172575,-18.32230651577085L-167.2318858172575,-29.28680050304809z" style="fill:rgb(255,187,187); fill-opacity: 0.4"></path><path d="M-167.9892128635192,-29.408937903452312L-167.9892128635192,-18.44444391617507M-167.9892128635192,-18.44444391617507L-166.4745587709958,-18.200169115366627" style="fill:none;stroke:rgb(0,0,0);stroke-width:1;stroke-linecap:round"></path><path d="M-166.4745587709958,-29.16466310264387L-166.4745587709958,-18.20016911536663L-161.54796693906968,-32.84461064630094z" style="fill:rgb(153,221,255); fill-opacity: 0.4"></path><path d="M-82.86895039197907,8.425908995732728L-78.64615739318526,5.271668244026666L-50.99299399140563,3.6504032118784195z" style="fill:rgb(255,187,187); fill-opacity: 0.4"></path><path d="M-167.2318808433426,-18.322306149999626L-167.2318808433426,-29.286800510725307M-167.2318808433426,-18.322306149999626L-132.98446380666473,-20.667537436621497M-166.4745587709958,-29.164663102643868L-166.4745587709958,-18.200169115366627" style="fill:none;stroke:rgb(0,0,0);stroke-width:1;stroke-linecap:round"></path><path d="M-167.9892128635192,-29.408937903452316L-166.4745587709958,-29.16466310264387L-163.0626210315931,-33.088885447109384zM-167.9892128635192,-18.444443916175075L-166.4745587709958,-18.20016911536663L-166.4745587709958,-29.16466310264387z" style="fill:rgb(153,221,255); fill-opacity: 0.4"></path><path d="M-162.3052939853314,-32.966748046705156L-167.2318858172575,-29.28680050304809L-132.98446828931452,-20.66753793282275z" style="fill:rgb(255,187,187); fill-opacity: 0.4"></path><path d="M-82.86895152119659,-0.9722294693103739L-50.99299516903927,3.6504037434594707" style="fill:none;stroke:rgb(0,0,0);stroke-width:1;stroke-linecap:round"></path><path d="M-78.64615739318526,-4.126469459353829L-82.86895039197907,-0.9722287076477664L-50.99299399140563,3.6504032118784195z" style="fill:rgb(255,187,187); fill-opacity: 0.4"></path><path d="M-167.9892128635192,-29.408937903452316L-167.9892128635192,-18.444443916175075L-166.4745587709958,-29.16466310264387z" style="fill:rgb(153,221,255); fill-opacity: 0.4"></path><path d="M-99.17590893724672,-37.055988384189455L-67.20025239872247,-60.9403982866352L-109.19538106436512,-67.71313388373417z" style="fill:rgb(170,170,170); fill-opacity: 0.4"></path><path d="M-167.2318858172575,-29.28680050304809L-167.2318858172575,-18.32230651577085L-132.98446828931452,-20.66753793282275z" style="fill:rgb(255,187,187); fill-opacity: 0.4"></path><path d="M-167.9892128635192,-29.408937903452312L-166.4745587709958,-29.164663102643868" style="fill:none;stroke:rgb(0,0,0);stroke-width:1;stroke-linecap:round"></path><path d="M-82.86895039197907,-0.9722287076477664L-82.86895039197907,8.425908995732728L-50.99299399140563,3.6504032118784195z" style="fill:rgb(255,187,187); fill-opacity: 0.4"></path><path d="M-175.27716848366921,-53.35460243326622L-173.76251439114583,-53.110327632457775L-137.19006786164869,-81.80399242956054z" style="fill:rgb(170,170,170); fill-opacity: 0.4"></path><path d="M-167.2318808433426,-29.286800510725307L-132.98446380666473,-20.667537436621497M12.110162199243126,-37.25474860769042L-40.38375007729689,-45.72066833702275M-40.38375007729689,-45.72066833702275L-65.40624926186352,-27.029961342851784M12.110162199243126,-37.25474860769042L12.110162199243119,18.434671424609277M12.110162199243119,18.434671424609277L-12.912336985323517,37.125378418780244M-141.17103760288936,-43.828723981288434L-141.17103760288936,27.33546128445551M-141.17103760288936,27.33546128445551L-99.17590893724673,34.10819688155449" style="fill:none;stroke:rgb(0,0,0);stroke-width:1;stroke-linecap:round"></path><path d="M-175.27716848366924,31.411053015746027L-173.76251439114586,31.65532781655447L-173.76251439114583,-53.110327632457775zM-65.40624926186354,28.659458689447913L-40.383750077296895,9.968751695276948L12.110162199243122,18.434671424609274zM12.110162199243126,-37.25474860769042L12.110162199243122,18.434671424609274L-40.38375007729689,-45.72066833702275zM-40.38375007729689,-45.72066833702275L-40.383750077296895,9.968751695276948L-65.40624926186354,-27.029961342851788zM-141.17103760288936,-43.82872398128843L-99.17590893724672,-37.055988384189455L-109.19538106436512,-67.71313388373417zM-175.27716848366921,-53.35460243326622L-175.27716848366924,31.411053015746027L-173.76251439114583,-53.110327632457775zM-99.17590893724672,-37.055988384189455L-99.17590893724673,34.10819688155449L-67.20025239872247,-60.9403982866352zM-40.383750077296895,9.968751695276948L-65.40624926186354,28.659458689447913L-65.40624926186354,-27.029961342851788z" style="fill:rgb(170,170,170); fill-opacity: 0.4"></path><path d="M-99.17590893724672,-37.055988384189455L-99.17590893724673,34.10819688155449M12.110162199243126,-37.25474860769042L-12.912336985323515,-18.564041613519457" style="fill:none;stroke:rgb(0,0,0);stroke-width:1;stroke-linecap:round"></path><path d="M-141.17103760288936,27.335461284455512L-99.17590893724673,34.10819688155449L-99.17590893724672,-37.055988384189455z" style="fill:rgb(170,170,170); fill-opacity: 0.4"></path><path d="M-175.27716848366921,-53.35460243326623L-173.76251439114586,-53.11032763245778M-3.5912050054248468,-9.286510217114886L-56.085117281964855,-17.752429946447215M-56.085117281964855,-25.584211365930962L-56.085117281964855,-17.752429946447215M-56.085117281964855,-17.752429946447215L-59.60411144762637,-15.123895986692164" style="fill:none;stroke:rgb(0,0,0);stroke-width:1;stroke-linecap:round"></path><path d="M-12.912336985323517,37.125378418780244L12.110162199243122,18.434671424609274L12.110162199243126,-37.25474860769042zM-141.17103760288936,-43.82872398128843L-141.17103760288936,27.335461284455512L-99.17590893724672,-37.055988384189455z" style="fill:rgb(170,170,170); fill-opacity: 0.4"></path><path d="M101.32286449267784,27.45675626263838L38.33017438318728,17.297653332907117M38.33017438318728,-20.26192945236931L38.33017438318728,17.297653332907117M38.33017438318728,17.297653332907117L21.453815658816637,29.903551477577015" style="fill:none;stroke:rgb(0,0,0);stroke-width:1;stroke-linecap:round"></path><path d="M-12.912336985323517,37.125378418780244L-65.40624926186354,28.659458689447913L12.110162199243122,18.434671424609274z" style="fill:rgb(170,170,170); fill-opacity: 0.4"></path><path d="M-3.5912050054248468,-17.11829163659863L-56.085117281964855,-25.584211365930962M-56.085117281964855,-25.584211365930962L-59.60411144762637,-22.95567740617591M-141.17103760288936,-43.828723981288434L-99.17590893724672,-37.055988384189455M-65.40624926186352,-27.029961342851784L-65.40624926186352,28.659458689447916M-65.40624926186352,28.659458689447916L-12.912336985323517,37.125378418780244" style="fill:none;stroke:rgb(0,0,0);stroke-width:1;stroke-linecap:round"></path><path d="M-56.08511728196486,-25.584211365930962L-56.08511728196486,-17.752429946447215L-59.60411144762638,-22.95567740617591zM-56.08511728196486,-17.752429946447215L-59.60411144762638,-15.123895986692164L-59.60411144762638,-22.95567740617591z" style="fill:rgb(153,221,255); fill-opacity: 0.4"></path><path d="M-12.912336985323513,-18.56404161351946L12.110162199243126,-37.25474860769042L-40.38375007729689,-45.72066833702275z" style="fill:rgb(170,170,170); fill-opacity: 0.4"></path><path d="M-59.60411144762637,-22.95567740617591L-59.60411144762637,-15.123895986692164M-59.60411144762637,-15.123895986692164L-7.11019917108636,-6.6579762573598344" style="fill:none;stroke:rgb(0,0,0);stroke-width:1;stroke-linecap:round"></path><path d="M-3.591205005424851,-9.286510217114884L-56.08511728196486,-17.752429946447215L-56.08511728196486,-25.584211365930962zM-59.60411144762638,-15.123895986692164L-56.08511728196486,-17.752429946447215L-3.591205005424851,-9.286510217114884z" style="fill:rgb(153,221,255); fill-opacity: 0.4"></path><path d="M-59.60411144762637,-22.95567740617591L-7.11019917108636,-14.489757676843578" style="fill:none;stroke:rgb(0,0,0);stroke-width:1;stroke-linecap:round"></path><path d="M101.32286449267784,27.45675626263838L38.33017438318729,17.297653332907114L38.3301743831873,-20.261929452369312z" style="fill:rgb(170,170,170); fill-opacity: 0.4"></path><path d="M-59.60411144762638,-22.95567740617591L-7.110199171086365,-14.489757676843574L-56.08511728196486,-25.584211365930962z" style="fill:rgb(153,221,255); fill-opacity: 0.4"></path><path d="M101.32286449267784,-10.102826522638045L38.33017438318728,-20.26192945236931M38.33017438318728,-20.26192945236931L21.453815658816637,-7.65603130769941" style="fill:none;stroke:rgb(0,0,0);stroke-width:1;stroke-linecap:round"></path><path d="M-65.40624926186354,-27.029961342851788L-12.912336985323513,-18.56404161351946L-40.38375007729689,-45.72066833702275z" style="fill:rgb(170,170,170); fill-opacity: 0.4"></path><path d="M-59.60411144762638,-22.95567740617591L-59.60411144762638,-15.123895986692164L-7.110199171086365,-14.489757676843574zM-3.5912050054248508,-17.11829163659863L-3.591205005424851,-9.286510217114884L-56.08511728196486,-25.584211365930962zM-7.110199171086366,-6.657976257359833L-59.60411144762638,-15.123895986692164L-3.591205005424851,-9.286510217114884zM-7.110199171086365,-14.489757676843574L-3.5912050054248508,-17.11829163659863L-56.08511728196486,-25.584211365930962z" style="fill:rgb(153,221,255); fill-opacity: 0.4"></path><path d="M21.453815658816644,29.90355147757701L38.33017438318729,17.297653332907114L101.32286449267784,27.45675626263838zM38.3301743831873,-20.261929452369312L38.33017438318729,17.297653332907114L21.453815658816648,-7.656031307699412z" style="fill:rgb(170,170,170); fill-opacity: 0.4"></path><path d="M-3.591205926126851,-17.118291538308096L-3.5912059261268516,-9.286510118824346M-3.5912059261268516,-9.286510118824346L-7.110199756190931,-6.657976409745829M-3.5912059261268516,-9.286510118824346L26.553739304930236,-3.1534835214802848M-3.5912050054248468,-17.11829163659863L-3.5912050054248468,-9.286510217114886M-3.5912050054248468,-9.286510217114886L-7.11019917108636,-6.6579762573598344" style="fill:none;stroke:rgb(0,0,0);stroke-width:1;stroke-linecap:round"></path><path d="M-59.60411144762638,-15.123895986692164L-7.110199171086366,-6.657976257359833L-7.110199171086365,-14.489757676843574z" style="fill:rgb(153,221,255); fill-opacity: 0.4"></path><path d="M-12.912336985323513,-18.56404161351946L-12.912336985323517,37.125378418780244L12.110162199243126,-37.25474860769042z" style="fill:rgb(170,170,170); fill-opacity: 0.4"></path><path d="M-65.40624926186352,-27.029961342851784L-12.912336985323515,-18.564041613519457" style="fill:none;stroke:rgb(0,0,0);stroke-width:1;stroke-linecap:round"></path><path d="M-65.40624926186354,-27.029961342851788L-65.40624926186354,28.659458689447913L-12.912336985323513,-18.56404161351946z" style="fill:rgb(170,170,170); fill-opacity: 0.4"></path><path d="M-3.591205926126851,-17.118291538308096L-7.11019975619093,-14.489757829229573M-3.591205926126851,-17.118291538308096L26.553739304930236,-3.1534835214802848M-3.5912050054248468,-17.11829163659863L-7.11019917108636,-14.489757676843578" style="fill:none;stroke:rgb(0,0,0);stroke-width:1;stroke-linecap:round"></path><path d="M-3.5912057997905142,-17.118291764709408L-3.5912057997905147,-9.286510345225661L-7.110199965452029,-6.6579763854706115z" style="fill:rgb(255,187,187); fill-opacity: 0.4"></path><path d="M-7.110199171086366,-6.657976257359833L-3.591205005424851,-9.286510217114884L-3.5912050054248508,-17.11829163659863z" style="fill:rgb(153,221,255); fill-opacity: 0.4"></path><path d="M-65.40624926186354,28.659458689447913L-12.912336985323517,37.125378418780244L-12.912336985323513,-18.56404161351946z" style="fill:rgb(170,170,170); fill-opacity: 0.4"></path><path d="M-12.912336985323515,-18.564041613519457L-12.912336985323517,37.125378418780244" style="fill:none;stroke:rgb(0,0,0);stroke-width:1;stroke-linecap:round"></path><path d="M-3.5912057997905147,-9.286510345225661L-3.5912057997905142,-17.118291764709408L26.553738877718082,-3.1534835993245562z" style="fill:rgb(255,187,187); fill-opacity: 0.4"></path><path d="M38.33017438318729,17.297653332907114L21.453815658816644,29.90355147757701L21.453815658816648,-7.656031307699412z" style="fill:rgb(170,170,170); fill-opacity: 0.4"></path><path d="M101.32286449267784,-10.102826522638045L101.32286449267784,27.45675626263838M101.32286449267784,27.45675626263838L84.44650576830719,40.06265440730828" style="fill:none;stroke:rgb(0,0,0);stroke-width:1;stroke-linecap:round"></path><path d="M101.32286449267784,-10.102826522638045L101.32286449267784,27.45675626263838L38.3301743831873,-20.261929452369312z" style="fill:rgb(170,170,170); fill-opacity: 0.4"></path><path d="M-3.5912057997905142,-17.118291764709408L-7.110199965452029,-6.6579763854706115L-7.110199965452028,-14.489757804954353z" style="fill:rgb(255,187,187); fill-opacity: 0.4"></path><path d="M-7.110199171086365,-14.489757676843574L-7.110199171086366,-6.657976257359833L-3.5912050054248508,-17.11829163659863z" style="fill:rgb(153,221,255); fill-opacity: 0.4"></path><path d="M-7.110199965452029,-6.6579763854706115L-3.5912057997905147,-9.286510345225661L26.553738877718082,-3.1534835993245562z" style="fill:rgb(255,187,187); fill-opacity: 0.4"></path><path d="M-7.110199756190931,-6.657976409745829L-7.11019975619093,-14.489757829229573M-7.110199756190931,-6.657976409745829L26.553739304930236,-3.1534835214802848M-7.11019917108636,-14.489757676843578L-7.11019917108636,-6.6579762573598344" style="fill:none;stroke:rgb(0,0,0);stroke-width:1;stroke-linecap:round"></path><path d="M-3.5912057997905142,-17.118291764709408L-7.110199965452028,-14.489757804954353L26.553738877718082,-3.1534835993245562z" style="fill:rgb(255,187,187); fill-opacity: 0.4"></path><path d="M-7.11019975619093,-14.489757829229573L26.553739304930236,-3.1534835214802848" style="fill:none;stroke:rgb(0,0,0);stroke-width:1;stroke-linecap:round"></path><path d="M-7.110199965452028,-14.489757804954353L-7.110199965452029,-6.6579763854706115L26.553738877718082,-3.1534835993245562z" style="fill:rgb(255,187,187); fill-opacity: 0.4"></path><path d="M21.453815658816637,-7.65603130769941L21.453815658816637,29.903551477577015M21.453815658816637,29.903551477577015L84.44650576830719,40.06265440730828M89.25190559284617,7.531387588352871L26.259215483355618,-2.6277153413783934M26.259215483355618,-8.893140476965387L26.259215483355618,-2.6277153413783934M26.259215483355618,-2.6277153413783934L23.44402015082641,-0.5248881735743518M89.25190559284617,1.2659624527658757L26.259215483355618,-8.893140476965387M26.259215483355618,-8.893140476965387L23.44402015082641,-6.790313309161347" style="fill:none;stroke:rgb(0,0,0);stroke-width:1;stroke-linecap:round"></path><path d="M26.25921548335563,-8.893140476965389L26.25921548335563,-2.6277153413783942L23.444020150826415,-6.790313309161347zM26.25921548335563,-2.6277153413783942L23.444020150826415,-0.5248881735743527L23.444020150826415,-6.790313309161347z" style="fill:rgb(153,221,255); fill-opacity: 0.4"></path><path d="M23.44402015082641,-6.790313309161347L23.44402015082641,-0.5248881735743518M23.44402015082641,-0.5248881735743518L86.43671026031697,9.634214756156911" style="fill:none;stroke:rgb(0,0,0);stroke-width:1;stroke-linecap:round"></path><path d="M84.44650576830719,40.06265440730828L21.453815658816644,29.90355147757701L101.32286449267784,27.45675626263838z" style="fill:rgb(170,170,170); fill-opacity: 0.4"></path><path d="M101.32286449267784,-10.102826522638045L84.44650576830719,2.503071622031853M23.44402015082641,-6.790313309161347L86.43671026031697,3.3687896205699173" style="fill:none;stroke:rgb(0,0,0);stroke-width:1;stroke-linecap:round"></path><path d="M84.44650576830719,40.06265440730828L101.32286449267784,27.45675626263838L101.32286449267784,-10.102826522638045zM84.44650576830719,2.5030716220318516L101.32286449267784,-10.102826522638045L38.3301743831873,-20.261929452369312z" style="fill:rgb(170,170,170); fill-opacity: 0.4"></path><path d="M89.25190559284617,7.531387588352868L26.25921548335563,-2.6277153413783942L26.25921548335563,-8.893140476965389z" style="fill:rgb(153,221,255); fill-opacity: 0.4"></path><path d="M21.453815658816648,-7.656031307699412L84.44650576830719,2.5030716220318516L38.3301743831873,-20.261929452369312z" style="fill:rgb(170,170,170); fill-opacity: 0.4"></path><path d="M23.444020150826415,-0.5248881735743527L26.25921548335563,-2.6277153413783942L89.25190559284617,7.531387588352868z" style="fill:rgb(153,221,255); fill-opacity: 0.4"></path><path d="M202.97443387554122,41.040665359482446L129.48296015515328,29.18837829751783M129.48296015515328,1.1230409184430095L129.48296015515328,29.18837829751783M129.48296015515328,29.18837829751783L116.87257776519168,38.60777963695713M21.453815658816637,-7.65603130769941L84.44650576830719,2.503071622031853" style="fill:none;stroke:rgb(0,0,0);stroke-width:1;stroke-linecap:round"></path><path d="M23.444020150826415,-6.790313309161347L86.43671026031697,3.3687896205699173L26.25921548335563,-8.893140476965389zM23.444020150826415,-6.790313309161347L23.444020150826415,-0.5248881735743527L86.43671026031697,3.3687896205699173z" style="fill:rgb(153,221,255); fill-opacity: 0.4"></path><path d="M21.453815658816648,-7.656031307699412L21.453815658816644,29.90355147757701L84.44650576830719,2.5030716220318516z" style="fill:rgb(170,170,170); fill-opacity: 0.4"></path><path d="M89.25190559284617,1.2659624527658748L89.25190559284617,7.531387588352868L26.25921548335563,-8.893140476965389z" style="fill:rgb(153,221,255); fill-opacity: 0.4"></path><path d="M21.453815658816644,29.90355147757701L84.44650576830719,40.06265440730828L84.44650576830719,2.5030716220318516z" style="fill:rgb(170,170,170); fill-opacity: 0.4"></path><path d="M202.97443387554122,12.975327980407624L129.48296015515328,1.1230409184430095M129.48296015515328,1.1230409184430095L116.87257776519168,10.542442257882309" style="fill:none;stroke:rgb(0,0,0);stroke-width:1;stroke-linecap:round"></path><path d="M86.43671026031697,9.63421475615691L23.444020150826415,-0.5248881735743527L89.25190559284617,7.531387588352868zM86.43671026031697,3.3687896205699173L89.25190559284617,1.2659624527658748L26.25921548335563,-8.893140476965389z" style="fill:rgb(153,221,255); fill-opacity: 0.4"></path><path d="M84.44650576830719,2.5030716220318516L84.44650576830719,40.06265440730828L101.32286449267784,-10.102826522638045z" style="fill:rgb(170,170,170); fill-opacity: 0.4"></path><path d="M23.444020150826415,-0.5248881735743527L86.43671026031697,9.63421475615691L86.43671026031697,3.3687896205699173z" style="fill:rgb(153,221,255); fill-opacity: 0.4"></path><path d="M202.97443387554122,41.04066535948245L129.48296015515328,29.18837829751783L129.48296015515328,1.1230409184430108z" style="fill:rgb(170,170,170); fill-opacity: 0.4"></path><path d="M84.44650576830719,2.503071622031853L84.44650576830719,40.06265440730828M198.40289980901588,28.05596738556439L124.91142608862796,16.203680323599777M124.91142608862796,11.504611471909529L124.91142608862796,16.203680323599777M124.91142608862796,16.203680323599777L122.80002958923104,17.780800699452804" style="fill:none;stroke:rgb(0,0,0);stroke-width:1;stroke-linecap:round"></path><path d="M129.48296015515328,1.1230409184430108L129.48296015515328,29.18837829751783L116.87257776519166,10.54244225788231z" style="fill:rgb(170,170,170); fill-opacity: 0.4"></path><path d="M89.25190474222643,1.2659618761359417L89.25190474222643,7.531387758619816M89.25190474222643,7.531387758619816L86.4367090740998,9.63421517710039M89.25190474222643,7.531387758619816L119.4114923819792,12.744518165761676M89.25190559284617,1.2659624527658757L89.25190559284617,7.531387588352871M89.25190559284617,7.531387588352871L86.43671026031697,9.634214756156911M198.40289980901588,23.356898533874144L124.91142608862796,11.504611471909529M124.91142608862796,11.504611471909529L122.80002958923104,13.08173184776256" style="fill:none;stroke:rgb(0,0,0);stroke-width:1;stroke-linecap:round"></path><path d="M124.91142608862793,11.50461147190953L124.91142608862793,16.203680323599773L122.80002958923104,13.081731847762564z" style="fill:rgb(153,221,255); fill-opacity: 0.4"></path><path d="M89.25190474222643,1.2659618761359417L86.4367090740998,3.3687892946165157M89.25190474222643,1.2659618761359417L119.4114923819792,12.744518165761676M89.25190559284617,1.2659624527658757L86.43671026031697,3.3687896205699173" style="fill:none;stroke:rgb(0,0,0);stroke-width:1;stroke-linecap:round"></path><path d="M86.43671026031697,9.63421475615691L89.25190559284617,7.531387588352868L89.25190559284617,1.2659624527658748z" style="fill:rgb(153,221,255); fill-opacity: 0.4"></path><path d="M89.25190695078611,1.2659626717667076L89.25190695078611,7.531387807353702L86.43671161825691,9.634214975157743z" style="fill:rgb(255,187,187); fill-opacity: 0.4"></path><path d="M124.91142608862793,16.203680323599773L122.80002958923104,17.780800699452808L122.80002958923104,13.081731847762564z" style="fill:rgb(153,221,255); fill-opacity: 0.4"></path><path d="M116.87257776519166,38.60777963695713L129.48296015515328,29.18837829751783L202.97443387554122,41.04066535948245z" style="fill:rgb(170,170,170); fill-opacity: 0.4"></path><path d="M122.80002958923104,13.08173184776256L122.80002958923104,17.780800699452804M122.80002958923104,17.780800699452804L196.29150330961895,29.633087761417418" style="fill:none;stroke:rgb(0,0,0);stroke-width:1;stroke-linecap:round"></path><path d="M129.48296015515328,29.18837829751783L116.87257776519166,38.60777963695713L116.87257776519166,10.54244225788231z" style="fill:rgb(170,170,170); fill-opacity: 0.4"></path><path d="M89.25190695078611,7.531387807353702L89.25190695078611,1.2659626717667076L119.41148893294064,12.744517541815291z" style="fill:rgb(255,187,187); fill-opacity: 0.4"></path><path d="M86.43671026031697,3.3687896205699173L86.43671026031697,9.63421475615691L89.25190559284617,1.2659624527658748z" style="fill:rgb(153,221,255); fill-opacity: 0.4"></path><path d="M89.25190695078611,1.2659626717667076L86.43671161825691,9.634214975157743L86.43671161825691,3.3687898395707503z" style="fill:rgb(255,187,187); fill-opacity: 0.4"></path><path d="M122.80002958923104,13.08173184776256L196.29150330961895,24.934018909727172M86.43671026031697,3.3687896205699173L86.43671026031697,9.634214756156911M86.4367090740998,9.63421517710039L86.4367090740998,3.3687892946165157M86.4367090740998,9.63421517710039L119.4114923819792,12.744518165761676" style="fill:none;stroke:rgb(0,0,0);stroke-width:1;stroke-linecap:round"></path><path d="M86.43671161825691,9.634214975157743L89.25190695078611,7.531387807353702L119.41148893294064,12.744517541815291zM89.25190695078611,1.2659626717667076L86.43671161825691,3.3687898395707503L119.41148893294064,12.744517541815291z" style="fill:rgb(255,187,187); fill-opacity: 0.4"></path><path d="M86.4367090740998,3.3687892946165157L119.4114923819792,12.744518165761676" style="fill:none;stroke:rgb(0,0,0);stroke-width:1;stroke-linecap:round"></path><path d="M86.43671161825691,3.3687898395707503L86.43671161825691,9.634214975157743L119.41148893294064,12.744517541815291z" style="fill:rgb(255,187,187); fill-opacity: 0.4"></path><path d="M116.87257776519168,10.542442257882309L116.87257776519168,38.60777963695713M116.87257776519168,38.60777963695713L190.36405148557958,50.46006669892174" style="fill:none;stroke:rgb(0,0,0);stroke-width:1;stroke-linecap:round"></path><path d="M198.40289980901588,28.055967385564394L124.91142608862793,16.203680323599773L124.91142608862793,11.50461147190953zM122.80002958923104,17.780800699452808L124.91142608862793,16.203680323599773L198.40289980901588,28.055967385564394z" style="fill:rgb(153,221,255); fill-opacity: 0.4"></path><path d="M202.97443387554122,12.975327980407627L202.97443387554122,41.04066535948245L129.48296015515328,1.1230409184430108z" style="fill:rgb(170,170,170); fill-opacity: 0.4"></path><path d="M122.80002958923104,13.081731847762564L196.29150330961897,24.93401890972718L124.91142608862793,11.50461147190953zM122.80002958923104,13.081731847762564L122.80002958923104,17.780800699452808L196.29150330961897,24.93401890972718z" style="fill:rgb(153,221,255); fill-opacity: 0.4"></path><path d="M202.97443387554122,12.975327980407624L202.97443387554122,41.040665359482446M202.97443387554122,41.040665359482446L190.36405148557958,50.46006669892174M116.87257776519168,10.542442257882309L190.36405148557958,22.39472931984692" style="fill:none;stroke:rgb(0,0,0);stroke-width:1;stroke-linecap:round"></path><path d="M198.40289980901588,23.356898533874148L198.40289980901588,28.055967385564394L124.91142608862793,11.50461147190953z" style="fill:rgb(153,221,255); fill-opacity: 0.4"></path><path d="M116.87257776519166,10.54244225788231L190.36405148557958,22.394729319846924L129.48296015515328,1.1230409184430108zM190.36405148557958,50.46006669892175L116.87257776519166,38.60777963695713L202.97443387554122,41.04066535948245z" style="fill:rgb(170,170,170); fill-opacity: 0.4"></path><path d="M196.29150330961897,29.63308776141742L122.80002958923104,17.780800699452808L198.40289980901588,28.055967385564394zM196.29150330961897,24.93401890972718L198.40289980901588,23.356898533874148L124.91142608862793,11.50461147190953z" style="fill:rgb(153,221,255); fill-opacity: 0.4"></path><path d="M190.36405148557958,22.394729319846924L202.97443387554122,12.975327980407627L129.48296015515328,1.1230409184430108z" style="fill:rgb(170,170,170); fill-opacity: 0.4"></path><path d="M122.80002958923104,17.780800699452808L196.29150330961897,29.63308776141742L196.29150330961897,24.93401890972718z" style="fill:rgb(153,221,255); fill-opacity: 0.4"></path><path d="M202.97443387554122,12.975327980407624L190.36405148557958,22.39472931984692" style="fill:none;stroke:rgb(0,0,0);stroke-width:1;stroke-linecap:round"></path><path d="M116.87257776519166,10.54244225788231L116.87257776519166,38.60777963695713L190.36405148557958,22.394729319846924zM190.36405148557958,50.46006669892175L202.97443387554122,41.04066535948245L202.97443387554122,12.975327980407627z" style="fill:rgb(170,170,170); fill-opacity: 0.4"></path><path d="M198.40289980901588,23.356898533874144L198.40289980901588,28.05596738556439M198.40289980901588,28.05596738556439L196.29150330961895,29.633087761417418M198.40290266108858,23.35689872577453L198.40290266108858,28.05596795091322M198.40290266108858,28.05596795091322L196.29150620364135,29.633088295431683M198.40290266108858,28.05596795091322L227.4868680200511,32.562358358927206M198.40289980901588,23.356898533874144L196.29150330961895,24.934018909727172M198.40290266108858,23.35689872577453L196.29150620364135,24.934019070292997M198.40290266108858,23.35689872577453L227.4868680200511,32.562358358927206M315.8309441502652,57.361897264370455L231.84068681897992,43.8164260701725M231.84068681897992,22.10211717179746L231.84068681897992,43.8164260701725M231.84068681897992,43.8164260701725L222.08396325482934,51.10426970303942" style="fill:none;stroke:rgb(0,0,0);stroke-width:1;stroke-linecap:round"></path><path d="M196.29150330961897,29.63308776141742L198.40289980901588,28.055967385564394L198.40289980901588,23.356898533874148z" style="fill:rgb(153,221,255); fill-opacity: 0.4"></path><path d="M198.40290043028796,23.356898634069378L198.40290043028796,28.055967485759624L196.29150393089108,29.63308786161265z" style="fill:rgb(255,187,187); fill-opacity: 0.4"></path><path d="M116.87257776519166,38.60777963695713L190.36405148557958,50.46006669892175L190.36405148557958,22.394729319846924z" style="fill:rgb(170,170,170); fill-opacity: 0.4"></path><path d="M196.29150330961897,24.93401890972718L196.29150330961897,29.63308776141742L198.40289980901588,23.356898533874148z" style="fill:rgb(153,221,255); fill-opacity: 0.4"></path><path d="M198.40290043028796,23.356898634069378L196.29150393089108,29.63308786161265L196.29150393089108,24.93401900992241z" style="fill:rgb(255,187,187); fill-opacity: 0.4"></path><path d="M196.29150330961895,24.934018909727172L196.29150330961895,29.633087761417418M196.29150620364135,29.633088295431683L196.29150620364135,24.934019070292997M196.29150620364135,29.633088295431683L227.4868680200511,32.562358358927206" style="fill:none;stroke:rgb(0,0,0);stroke-width:1;stroke-linecap:round"></path><path d="M198.40290043028796,28.055967485759624L198.40290043028796,23.356898634069378L227.48686574317387,32.56235789995256z" style="fill:rgb(255,187,187); fill-opacity: 0.4"></path><path d="M196.29150620364135,24.934019070292997L227.4868680200511,32.562358358927206" style="fill:none;stroke:rgb(0,0,0);stroke-width:1;stroke-linecap:round"></path><path d="M196.29150393089108,29.63308786161265L198.40290043028796,28.055967485759624L227.48686574317387,32.56235789995256zM198.40290043028796,23.356898634069378L196.29150393089108,24.93401900992241L227.48686574317387,32.56235789995256z" style="fill:rgb(255,187,187); fill-opacity: 0.4"></path><path d="M190.36405148557958,22.394729319846924L190.36405148557958,50.46006669892175L202.97443387554122,12.975327980407627z" style="fill:rgb(170,170,170); fill-opacity: 0.4"></path><path d="M196.29150393089108,24.93401900992241L196.29150393089108,29.63308786161265L227.48686574317387,32.56235789995256z" style="fill:rgb(255,187,187); fill-opacity: 0.4"></path><path d="M315.8309441502652,35.64758836599542L231.84068681897992,22.10211717179746M231.84068681897992,22.10211717179746L222.08396325482934,29.389960804664383M190.36405148557958,22.39472931984692L190.36405148557958,50.46006669892174" style="fill:none;stroke:rgb(0,0,0);stroke-width:1;stroke-linecap:round"></path><path d="M231.84068681897998,22.10211717179746L231.84068681897998,43.8164260701725L222.0839632548294,29.389960804664383zM315.8309441502652,57.361897264370455L231.84068681897998,43.8164260701725L231.84068681897998,22.10211717179746zM231.84068681897998,43.8164260701725L222.0839632548294,51.10426970303942L222.0839632548294,29.389960804664383zM222.0839632548294,51.10426970303942L231.84068681897998,43.8164260701725L315.8309441502652,57.361897264370455z" style="fill:rgb(170,170,170); fill-opacity: 0.4"></path><path d="M222.08396325482934,29.389960804664383L222.08396325482934,51.10426970303942M222.08396325482934,51.10426970303942L306.0742205861146,64.64974089723738M222.08396325482934,29.389960804664383L306.0742205861146,42.93543199886234" style="fill:none;stroke:rgb(0,0,0);stroke-width:1;stroke-linecap:round"></path><path d="M315.8309441502652,35.647588365995425L315.8309441502652,57.361897264370455L231.84068681897998,22.10211717179746zM222.0839632548294,29.389960804664383L306.0742205861147,42.93543199886235L231.84068681897998,22.10211717179746z" style="fill:rgb(170,170,170); fill-opacity: 0.4"></path><path d="M315.8309441502652,35.64758836599542L315.8309441502652,57.361897264370455M315.8309441502652,57.361897264370455L306.0742205861146,64.64974089723738" style="fill:none;stroke:rgb(0,0,0);stroke-width:1;stroke-linecap:round"></path><path d="M222.0839632548294,29.389960804664383L222.0839632548294,51.10426970303942L306.0742205861147,42.93543199886235zM306.0742205861147,64.64974089723738L222.0839632548294,51.10426970303942L315.8309441502652,57.361897264370455z" style="fill:rgb(170,170,170); fill-opacity: 0.4"></path><path d="M359.43301821506685,115.46632727643971L348.9342360486562,113.77314337716497M348.9342360486562,-5.655560045279019L348.9342360486562,113.77314337716497M348.9342360486562,113.77314337716497L344.05587426658093,117.41706519359845" style="fill:none;stroke:rgb(0,0,0);stroke-width:1;stroke-linecap:round"></path><path d="M306.0742205861147,42.93543199886235L315.8309441502652,35.647588365995425L231.84068681897998,22.10211717179746z" style="fill:rgb(170,170,170); fill-opacity: 0.4"></path><path d="M359.43301821506685,-3.9623761460042792L359.43301821506685,115.46632727643971M359.43301821506685,115.46632727643971L354.5546564329916,119.11024909287318" style="fill:none;stroke:rgb(0,0,0);stroke-width:1;stroke-linecap:round"></path><path d="M344.05587426658093,117.41706519359843L348.9342360486562,113.77314337716496L359.43301821506685,115.4663272764397z" style="fill:rgb(170,170,170); fill-opacity: 0.4"></path><path d="M315.8309441502652,35.64758836599542L306.0742205861146,42.93543199886234" style="fill:none;stroke:rgb(0,0,0);stroke-width:1;stroke-linecap:round"></path><path d="M306.0742205861147,64.64974089723738L315.8309441502652,57.361897264370455L315.8309441502652,35.647588365995425zM222.0839632548294,51.10426970303942L306.0742205861147,64.64974089723738L306.0742205861147,42.93543199886235zM354.5546564329916,119.11024909287316L344.05587426658093,117.41706519359843L359.43301821506685,115.4663272764397z" style="fill:rgb(170,170,170); fill-opacity: 0.4"></path><path d="M344.05587426658093,-2.01163822884555L344.05587426658093,117.41706519359845M344.05587426658093,117.41706519359845L354.5546564329916,119.11024909287318M354.5546564329916,-0.3184543295708107L354.5546564329916,119.11024909287318M317.71662741409847,51.23953136112556L334.8827071293636,54.00797910362125" style="fill:none;stroke:rgb(0,0,0);stroke-width:1;stroke-linecap:round"></path><path d="M306.0742205861147,42.93543199886235L306.0742205861147,64.64974089723738L315.8309441502652,35.647588365995425zM359.43301821506685,115.4663272764397L348.9342360486562,113.77314337716496L348.9342360486562,-5.655560045279022z" style="fill:rgb(170,170,170); fill-opacity: 0.4"></path><path d="M306.0742205861146,42.93543199886234L306.0742205861146,64.64974089723738M400.2248822030964,122.04500718723072L389.72610003668575,120.351823287956M389.72610003668575,0.9231198655120031L389.72610003668575,120.351823287956M389.72610003668575,120.351823287956L384.8477382546105,123.99574510438946" style="fill:none;stroke:rgb(0,0,0);stroke-width:1;stroke-linecap:round"></path><path d="M348.9342360486562,113.77314337716496L344.05587426658093,117.41706519359843L344.05587426658093,-2.0116382288455523z" style="fill:rgb(170,170,170); fill-opacity: 0.4"></path><path d="M400.2248822030964,2.6163037647867426L400.2248822030964,122.04500718723072M400.2248822030964,122.04500718723072L395.3465204210211,125.6889290036642" style="fill:none;stroke:rgb(0,0,0);stroke-width:1;stroke-linecap:round"></path><path d="M384.8477382546105,123.99574510438948L389.72610003668575,120.351823287956L400.2248822030964,122.04500718723075zM354.5546564329916,119.11024909287316L359.43301821506685,115.4663272764397L359.43301821506685,-3.962376146004282z" style="fill:rgb(170,170,170); fill-opacity: 0.4"></path><path d="M333.2093259216048,56.46799811972136L334.8827071293636,57.923869813363126L344.9804010795196,55.63647777567754zM335.9169135514915,50.067450201752294L333.8485007072357,51.612463676617764L344.9804010795196,55.63647777567754zM333.8485007072357,51.612463676617764L333.2093259216048,56.46799811972136L344.9804010795196,55.63647777567754z" style="fill:rgb(0,0,0)"></path><path d="M395.3465204210211,125.68892900366423L384.8477382546105,123.99574510438948L400.2248822030964,122.04500718723075z" style="fill:rgb(170,170,170); fill-opacity: 0.4"></path><path d="M384.8477382546105,4.567041681945472L384.8477382546105,123.99574510438946M384.8477382546105,123.99574510438946L395.3465204210211,125.6889290036642" style="fill:none;stroke:rgb(0,0,0);stroke-width:1;stroke-linecap:round"></path><path d="M344.05587426658093,117.41706519359843L354.5546564329916,119.11024909287316L354.5546564329916,-0.3184543295708128z" style="fill:rgb(170,170,170); fill-opacity: 0.4"></path><path d="M395.3465204210211,6.260225581220212L395.3465204210211,125.6889290036642M358.508491402128,57.81821127191659L375.67457111739316,60.58665901441229" style="fill:none;stroke:rgb(0,0,0);stroke-width:1;stroke-linecap:round"></path><path d="M359.43301821506685,-3.962376146004282L359.43301821506685,115.4663272764397L348.9342360486562,-5.655560045279022zM348.9342360486562,-5.655560045279022L348.9342360486562,113.77314337716496L344.05587426658093,-2.0116382288455523zM400.2248822030964,122.04500718723075L389.72610003668575,120.351823287956L389.72610003668575,0.9231198655120078z" style="fill:rgb(170,170,170); fill-opacity: 0.4"></path><path d="M441.01674619112606,128.6236870980218L430.5179640247154,126.93050319874703M430.5179640247154,7.501799776303059L430.5179640247154,126.93050319874703M430.5179640247154,126.93050319874703L425.63960224264014,130.57442501518054" style="fill:none;stroke:rgb(0,0,0);stroke-width:1;stroke-linecap:round"></path><path d="M389.72610003668575,120.351823287956L384.8477382546105,123.99574510438948L384.8477382546105,4.567041681945476z" style="fill:rgb(170,170,170); fill-opacity: 0.4"></path><path d="M441.01674619112606,9.194983675577799L441.01674619112606,128.6236870980218M441.01674619112606,128.6236870980218L436.1383844090508,132.26760891445525" style="fill:none;stroke:rgb(0,0,0);stroke-width:1;stroke-linecap:round"></path><path d="M425.63960224264014,130.57442501518054L430.5179640247154,126.93050319874703L441.01674619112606,128.6236870980218zM395.3465204210211,125.68892900366423L400.2248822030964,122.04500718723075L400.2248822030964,2.616303764786761zM354.5546564329916,-0.3184543295708128L354.5546564329916,119.11024909287316L359.43301821506685,-3.962376146004282zM344.05587426658093,-2.0116382288455523L344.05587426658093,117.41706519359843L354.5546564329916,-0.3184543295708128z" style="fill:rgb(170,170,170); fill-opacity: 0.4"></path><path d="M374.0011899096344,63.04667803051238L375.6745711173932,64.50254972415415L385.77226506754914,62.21515768646859zM376.7087775395211,56.646130112543325L374.6403646952653,58.191143587408796L385.77226506754914,62.21515768646859zM374.6403646952653,58.191143587408796L374.0011899096344,63.04667803051238L385.77226506754914,62.21515768646859z" style="fill:rgb(0,0,0)"></path><path d="M359.43301821506685,-3.9623761460042792L348.9342360486562,-5.655560045279019M348.9342360486562,-5.655560045279019L344.05587426658093,-2.01163822884555" style="fill:none;stroke:rgb(0,0,0);stroke-width:1;stroke-linecap:round"></path><path d="M436.1383844090508,132.26760891445525L425.63960224264014,130.57442501518054L441.01674619112606,128.6236870980218z" style="fill:rgb(170,170,170); fill-opacity: 0.4"></path><path d="M425.63960224264014,11.145721592736528L425.63960224264014,130.57442501518054M425.63960224264014,130.57442501518054L436.1383844090508,132.26760891445525" style="fill:none;stroke:rgb(0,0,0);stroke-width:1;stroke-linecap:round"></path><path d="M384.8477382546105,123.99574510438948L395.3465204210211,125.68892900366423L395.3465204210211,6.260225581220229z" style="fill:rgb(170,170,170); fill-opacity: 0.4"></path><path d="M359.43301821506685,-3.9623761460042792L354.5546564329916,-0.3184543295708107M436.1383844090508,12.838905492011268L436.1383844090508,132.26760891445525M399.3003553901577,64.39689118270762L416.4664351054228,67.16533892520333" style="fill:none;stroke:rgb(0,0,0);stroke-width:1;stroke-linecap:round"></path><path d="M400.2248822030964,2.616303764786761L400.2248822030964,122.04500718723075L389.72610003668575,0.9231198655120078zM389.72610003668575,0.9231198655120078L389.72610003668575,120.351823287956L384.8477382546105,4.567041681945476zM354.5546564329916,-0.3184543295708128L359.43301821506685,-3.962376146004282L348.9342360486562,-5.655560045279022zM441.01674619112606,128.6236870980218L430.5179640247154,126.93050319874703L430.5179640247154,7.5017997763030495zM344.05587426658093,-2.0116382288455523L354.5546564329916,-0.3184543295708128L348.9342360486562,-5.655560045279022z" style="fill:rgb(170,170,170); fill-opacity: 0.4"></path><path d="M344.05587426658093,-2.01163822884555L354.5546564329916,-0.3184543295708107" style="fill:none;stroke:rgb(0,0,0);stroke-width:1;stroke-linecap:round"></path><path d="M430.5179640247154,126.93050319874703L425.63960224264014,130.57442501518054L425.63960224264014,11.14572159273652zM436.1383844090508,132.26760891445525L441.01674619112606,128.6236870980218L441.01674619112606,9.194983675577804zM395.3465204210211,6.260225581220229L395.3465204210211,125.68892900366423L400.2248822030964,2.616303764786761zM384.8477382546105,4.567041681945476L384.8477382546105,123.99574510438948L395.3465204210211,6.260225581220229z" style="fill:rgb(170,170,170); fill-opacity: 0.4"></path><path d="M414.793053897664,69.62535794130342L416.4664351054228,71.08122963494519L426.5641290555788,68.79383759725962zM417.5006415275507,63.22481002333436L415.4322286832949,64.76982349819983L426.5641290555788,68.79383759725962zM415.4322286832949,64.76982349819983L414.793053897664,69.62535794130342L426.5641290555788,68.79383759725962z" style="fill:rgb(0,0,0)"></path><path d="M400.2248822030964,2.6163037647867426L389.72610003668575,0.9231198655120031M389.72610003668575,0.9231198655120031L384.8477382546105,4.567041681945472" style="fill:none;stroke:rgb(0,0,0);stroke-width:1;stroke-linecap:round"></path><path d="M425.63960224264014,130.57442501518054L436.1383844090508,132.26760891445525L436.1383844090508,12.838905492011273z" style="fill:rgb(170,170,170); fill-opacity: 0.4"></path><path d="M481.8086101791557,102.63090216745653L471.309828012745,100.93771826818177M471.309828012745,46.65194452845042L471.309828012745,100.93771826818177M471.309828012745,100.93771826818177L466.4314662306698,104.58164008461523M400.2248822030964,2.6163037647867426L395.3465204210211,6.260225581220212M440.09221937818734,70.97557109349867L457.2582990934525,73.74401883599437" style="fill:none;stroke:rgb(0,0,0);stroke-width:1;stroke-linecap:round"></path><path d="M441.01674619112606,9.194983675577804L441.01674619112606,128.6236870980218L430.5179640247154,7.5017997763030495zM430.5179640247154,7.5017997763030495L430.5179640247154,126.93050319874703L425.63960224264014,11.14572159273652zM395.3465204210211,6.260225581220229L400.2248822030964,2.616303764786761L389.72610003668575,0.9231198655120078z" style="fill:rgb(170,170,170); fill-opacity: 0.4"></path><path d="M481.8086101791557,48.345128427725164L481.8086101791557,102.63090216745653M481.8086101791557,102.63090216745653L476.93024839708045,106.27482398388997" style="fill:none;stroke:rgb(0,0,0);stroke-width:1;stroke-linecap:round"></path><path d="M384.8477382546105,4.567041681945476L395.3465204210211,6.260225581220229L389.72610003668575,0.9231198655120078zM466.4314662306698,104.58164008461523L471.309828012745,100.93771826818177L481.8086101791557,102.63090216745651z" style="fill:rgb(170,170,170); fill-opacity: 0.4"></path><path d="M384.8477382546105,4.567041681945472L395.3465204210211,6.260225581220212" style="fill:none;stroke:rgb(0,0,0);stroke-width:1;stroke-linecap:round"></path><path d="M481.8086101791557,102.63090216745651L471.309828012745,100.93771826818177L471.309828012745,46.65194452845043zM476.93024839708045,106.27482398388997L466.4314662306698,104.58164008461523L481.8086101791557,102.63090216745651z" style="fill:rgb(170,170,170); fill-opacity: 0.4"></path><path d="M466.4314662306698,50.29586634488388L466.4314662306698,104.58164008461523M466.4314662306698,104.58164008461523L476.93024839708045,106.27482398388997" style="fill:none;stroke:rgb(0,0,0);stroke-width:1;stroke-linecap:round"></path><path d="M436.1383844090508,12.838905492011273L436.1383844090508,132.26760891445525L441.01674619112606,9.194983675577804zM425.63960224264014,11.14572159273652L425.63960224264014,130.57442501518054L436.1383844090508,12.838905492011273z" style="fill:rgb(170,170,170); fill-opacity: 0.4"></path><path d="M455.5849178856936,76.20403785209446L457.2582990934525,77.65990954573623L467.35599304360846,75.37251750805068zM458.2925055155804,69.80348993412541L456.22409267132457,71.34850340899087L467.35599304360846,75.37251750805068z" style="fill:rgb(0,0,0)"></path><path d="M471.309828012745,100.93771826818177L466.4314662306698,104.58164008461523L466.4314662306698,50.29586634488389z" style="fill:rgb(170,170,170); fill-opacity: 0.4"></path><path d="M456.22409267132457,71.34850340899087L455.5849178856936,76.20403785209446L467.35599304360846,75.37251750805068z" style="fill:rgb(0,0,0)"></path><path d="M441.01674619112606,9.194983675577799L430.5179640247154,7.501799776303059M430.5179640247154,7.501799776303059L425.63960224264014,11.145721592736528M476.93024839708045,51.989050244158626L476.93024839708045,106.27482398388997" style="fill:none;stroke:rgb(0,0,0);stroke-width:1;stroke-linecap:round"></path><path d="M476.93024839708045,106.27482398388997L481.8086101791557,102.63090216745651L481.8086101791557,48.345128427725164zM481.8086101791557,48.345128427725164L481.8086101791557,102.63090216745651L471.309828012745,46.65194452845043zM471.309828012745,46.65194452845043L471.309828012745,100.93771826818177L466.4314662306698,50.29586634488389z" style="fill:rgb(170,170,170); fill-opacity: 0.4"></path><path d="M441.01674619112606,9.194983675577799L436.1383844090508,12.838905492011268" style="fill:none;stroke:rgb(0,0,0);stroke-width:1;stroke-linecap:round"></path><path d="M466.4314662306698,104.58164008461523L476.93024839708045,106.27482398388997L476.93024839708045,51.98905024415863z" style="fill:rgb(170,170,170); fill-opacity: 0.4"></path><path d="M481.8086101791557,48.345128427725164L471.309828012745,46.65194452845042M471.309828012745,46.65194452845042L466.4314662306698,50.29586634488388" style="fill:none;stroke:rgb(0,0,0);stroke-width:1;stroke-linecap:round"></path><path d="M436.1383844090508,12.838905492011273L441.01674619112606,9.194983675577804L430.5179640247154,7.5017997763030495zM425.63960224264014,11.14572159273652L436.1383844090508,12.838905492011273L430.5179640247154,7.5017997763030495z" style="fill:rgb(170,170,170); fill-opacity: 0.4"></path><path d="M425.63960224264014,11.145721592736528L436.1383844090508,12.838905492011268" style="fill:none;stroke:rgb(0,0,0);stroke-width:1;stroke-linecap:round"></path><path d="M476.93024839708045,51.98905024415863L476.93024839708045,106.27482398388997L481.8086101791557,48.345128427725164z" style="fill:rgb(170,170,170); fill-opacity: 0.4"></path><path d="M481.8086101791557,48.345128427725164L476.93024839708045,51.989050244158626" style="fill:none;stroke:rgb(0,0,0);stroke-width:1;stroke-linecap:round"></path><path d="M466.4314662306698,50.29586634488389L466.4314662306698,104.58164008461523L476.93024839708045,51.98905024415863zM476.93024839708045,51.98905024415863L481.8086101791557,48.345128427725164L471.309828012745,46.65194452845043zM466.4314662306698,50.29586634488389L476.93024839708045,51.98905024415863L471.309828012745,46.65194452845043z" style="fill:rgb(170,170,170); fill-opacity: 0.4"></path><path d="M466.4314662306698,50.29586634488388L476.93024839708045,51.989050244158626" style="fill:none;stroke:rgb(0,0,0);stroke-width:1;stroke-linecap:round"></path></svg>